# Blender v2.74 (sub 0) OBJ File: 'bullet.blend'
# www.blender.org
mtllib bullet.mtl
v -0.000000 0.500000 -0.875000
v 0.500000 0.000000 -0.875000
v -0.000000 -0.500000 -0.875000
v 0.000000 -0.000000 1.125000
v -0.500000 0.000000 -0.875000
v -0.500000 0.000000 0.625000
v 0.500000 -0.000000 0.625000
v 0.000000 0.500000 0.625000
v -0.000000 -0.500000 0.625000
vt 0.624415 0.195022
vt 0.593171 0.249138
vt 0.561928 0.195022
vt 0.749390 0.195022
vt 0.718147 0.249138
vt 0.686903 0.195022
vt 0.530684 0.249138
vt 0.499440 0.195022
vt 0.655659 0.249138
vt 0.499440 -0.000021
vt 0.561928 -0.000021
vt 0.561928 0.062466
vt 0.624415 0.062466
vt 0.499440 0.062466
vt 0.686903 0.062466
vt 0.749390 0.062466
vn -0.577400 -0.577400 0.577400
vn 0.577400 0.577400 0.577400
vn -0.577400 0.577400 0.577400
vn 0.577400 -0.577400 0.577400
vn -0.000000 0.000000 -1.000000
vn 0.707100 -0.707100 -0.000000
vn -0.707100 0.707100 0.000000
vn 0.707100 0.707100 0.000000
vn -0.707100 -0.707100 -0.000000
usemtl None
s off
f 9/1/1 4/2/1 6/3/1
f 8/4/2 4/5/2 7/6/2
f 6/3/3 4/7/3 8/8/3
f 7/6/4 4/9/4 9/1/4
f 2/10/5 3/11/5 5/12/5
f 7/6/6 9/1/6 3/13/6
f 6/3/7 8/8/7 1/14/7
f 8/4/8 7/6/8 2/15/8
f 9/1/9 6/3/9 5/12/9
f 1/14/5 2/10/5 5/12/5
f 2/15/6 7/6/6 3/13/6
f 5/12/7 6/3/7 1/14/7
f 1/16/8 8/4/8 2/15/8
f 3/13/9 9/1/9 5/12/9
