# Blender v2.74 (sub 0) OBJ File: 'debris2.blend'
# www.blender.org
mtllib debris2.mtl
v 0.000000 -1.200000 0.000000
v 0.578889 -0.357782 0.420583
v -0.331663 -0.536663 1.020778
v -0.715545 -0.357778 0.000000
v -0.221113 -0.357776 -0.680521
v 0.578889 -0.357782 -0.420583
v 0.221113 0.357776 0.680521
v -0.868326 0.536657 0.630868
v -0.801880 0.495591 -0.574953
v 0.221113 0.357776 -0.680521
v 0.759225 0.365086 0.000000
v -0.002207 0.797100 -0.015965
v -0.129966 -0.680526 0.399998
v 0.510384 -1.020783 0.370811
v 0.315440 -0.630880 0.970809
v 1.020776 -0.630878 0.000000
v 0.340261 -0.680526 -0.247211
v -0.630872 -1.020780 0.000000
v -0.550557 -0.420594 0.400000
v -0.194946 -1.020783 -0.599992
v -0.825822 -0.630879 -0.599994
v 0.315440 -0.630880 -0.970809
v 1.141268 0.000000 0.370813
v 1.141268 0.000000 -0.370813
v 0.000000 0.000000 1.200000
v 0.470234 0.000000 0.647214
v -1.141268 0.000000 0.370813
v -0.705337 0.000000 0.970820
v -0.470234 0.000000 -0.647214
v -1.141268 0.000000 -0.370813
v 0.705337 0.000000 -0.970820
v 0.000000 0.000000 -0.800000
v 0.551028 0.411702 0.374879
v -0.210298 0.420595 0.647215
v -0.713299 0.431054 -0.005150
v -0.220474 0.423454 -0.631423
v 0.570620 0.411702 -0.401846
v 0.135981 0.648619 0.364578
v 0.488485 0.790392 0.000000
v -0.343927 0.671043 0.237887
v -0.465021 0.913239 -0.337196
v 0.114835 0.666462 -0.369190
vt 0.552004 0.566612
vt 0.559432 0.585824
vt 0.536763 0.580468
vt 0.569309 0.602778
vt 0.576737 0.583566
vt 0.589907 0.602778
vt 0.737795 0.566611
vt 0.745223 0.585824
vt 0.722554 0.580468
vt 0.691347 0.566611
vt 0.698776 0.585824
vt 0.676106 0.580468
vt 0.644899 0.566611
vt 0.652328 0.585824
vt 0.629658 0.580468
vt 0.576737 0.621991
vt 0.522861 0.602778
vt 0.543459 0.602778
vt 0.530289 0.621991
vt 0.708652 0.602778
vt 0.729250 0.602778
vt 0.716080 0.621991
vt 0.662204 0.602778
vt 0.682803 0.602778
vt 0.669632 0.621991
vt 0.615756 0.602778
vt 0.636355 0.602778
vt 0.623184 0.621991
vt 0.563812 0.605952
vt 0.553513 0.623791
vt 0.517364 0.605952
vt 0.507065 0.623791
vt 0.703155 0.605952
vt 0.692856 0.623791
vt 0.656707 0.605951
vt 0.646408 0.623791
vt 0.610260 0.605951
vt 0.599960 0.623791
vt 0.546085 0.643004
vt 0.566683 0.643004
vt 0.553513 0.662216
vt 0.499637 0.643004
vt 0.520235 0.643004
vt 0.507065 0.662216
vt 0.685428 0.643003
vt 0.706026 0.643004
vt 0.692856 0.662216
vt 0.638980 0.643003
vt 0.659579 0.643003
vt 0.646409 0.662216
vt 0.592532 0.643003
vt 0.613131 0.643003
vt 0.599961 0.662216
vt 0.606435 0.665313
vt 0.629104 0.659958
vt 0.621676 0.679170
vt 0.633484 0.639830
vt 0.652883 0.665314
vt 0.675552 0.659958
vt 0.668124 0.679170
vt 0.679932 0.639830
vt 0.699330 0.665314
vt 0.721999 0.659958
vt 0.714571 0.679170
vt 0.726379 0.639830
vt 0.513539 0.665314
vt 0.536208 0.659958
vt 0.528780 0.679170
vt 0.540588 0.639830
vt 0.559987 0.665314
vt 0.582656 0.659958
vt 0.575228 0.679170
vt 0.587036 0.639830
vt 0.739304 0.623791
vt 0.749603 0.605951
vt 0.623184 0.583565
vt 0.669632 0.583565
vt 0.716080 0.583566
vt 0.605880 0.585824
vt 0.583211 0.580468
vt 0.598452 0.566611
vt 0.530289 0.583566
vn -0.301000 -0.627900 0.717700
vn 0.643200 -0.123200 0.755700
vn -0.178400 -0.627900 0.757500
vn -0.268000 -0.943500 -0.194700
vn 0.665300 -0.627900 -0.403700
vn 0.397800 -0.520200 0.755700
vn 0.024800 -0.330400 0.943500
vn -0.580000 -0.806800 0.112500
vn -0.132100 0.000300 -0.991200
vn 0.841700 -0.520200 -0.144800
vn 0.344700 -0.425400 0.836800
vn -0.306600 -0.125600 0.943500
vn -0.643400 -0.765600 0.000000
vn -0.306600 -0.125600 -0.943500
vn 0.520500 -0.765500 -0.378200
vn 0.400200 0.725400 0.560000
vn 0.140400 0.864300 0.483000
vn -0.814100 0.549200 0.188800
vn 0.028600 0.714700 -0.698900
vn 0.800200 0.509400 -0.316500
vn 0.023900 0.940200 -0.339800
vn 0.356700 0.715200 -0.601100
vn 0.360600 0.721000 -0.591800
vn 0.372900 0.903600 -0.210600
vn 0.201600 0.576400 -0.791900
vn -0.020800 0.507200 -0.861600
vn -0.044400 0.917300 0.395700
vn -0.670200 0.622900 0.403500
vn -0.409300 0.878700 -0.245700
vn -0.057400 0.922800 0.380900
vn -0.104600 0.832800 0.543700
vn 0.056500 0.742100 0.667900
vn 0.000900 0.931700 0.363200
vn 0.374200 0.682900 0.627400
vn 0.782800 0.498300 0.372800
vn 0.581900 0.792900 -0.181100
vn 0.550500 0.732800 -0.399900
vn 0.286900 0.807100 -0.516000
vn -0.052800 0.345500 -0.936900
vn -0.301900 0.212700 -0.929300
vn -0.085500 0.087500 -0.992500
vn -0.772300 0.606600 0.188800
vn -0.709600 0.704600 0.000000
vn -0.792600 0.540200 -0.282900
vn 0.076300 0.550000 0.831700
vn -0.208300 0.738600 0.641200
vn 0.072200 0.806800 0.586400
vn 0.603800 0.354000 0.714200
vn 0.335600 0.473000 0.814600
vn 0.560100 0.801000 0.211500
vn -0.213000 0.425400 -0.879600
vn -0.232900 0.143900 -0.961800
vn -0.475700 0.000300 -0.879600
vn -0.378100 -0.119200 -0.918000
vn -0.376900 0.143900 -0.915000
vn -0.766000 -0.520200 0.377600
vn -0.802600 0.125600 0.583100
vn -0.545400 -0.738600 0.396300
vn -0.814600 -0.550000 0.184400
vn 0.689300 0.425400 0.586400
vn 0.753800 0.143900 0.641200
vn 0.901900 0.000300 0.432000
vn 0.690900 0.723000 0.000000
vn 0.982200 -0.187600 0.000000
vn 0.397800 -0.520200 -0.755700
vn 0.784000 -0.616900 -0.069200
vn 0.570000 -0.818100 -0.075700
vn -0.520000 -0.123200 -0.845200
vn -0.076100 -0.123200 -0.989500
vn -0.491100 -0.794700 -0.356800
vn -0.964600 -0.123200 0.233400
vn -0.924400 -0.118100 0.362700
vn -0.308200 -0.498700 0.810100
vn -0.525500 -0.850400 0.026300
vn 0.308100 -0.616900 -0.724300
vn 0.248100 -0.818100 -0.518700
vn 0.589600 -0.627900 -0.508000
vn -0.127700 -0.974500 0.184400
vn -0.416700 -0.818100 0.396300
vn 0.917500 -0.123200 0.378200
usemtl None
s off
f 1/1/1 14/2/1 13/3/1
f 2/4/2 14/5/2 16/6/2
f 1/7/3 13/8/3 18/9/3
f 1/10/4 18/11/4 20/12/4
f 1/13/5 20/14/5 17/15/5
f 2/4/6 16/6/6 23/16/6
f 3/17/7 15/18/7 25/19/7
f 4/20/8 19/21/8 27/22/8
f 5/23/9 21/24/9 29/25/9
f 6/26/10 22/27/10 31/28/10
f 2/29/11 23/16/11 26/30/11
f 3/31/12 25/19/12 28/32/12
f 4/33/13 27/22/13 30/34/13
f 5/35/14 29/25/14 32/36/14
f 6/37/15 31/28/15 24/38/15
f 7/39/16 33/40/16 38/41/16
f 8/42/17 34/43/17 40/44/17
f 9/45/18 35/46/18 41/47/18
f 10/48/19 36/49/19 42/50/19
f 11/51/20 37/52/20 39/53/20
f 39/54/21 42/55/21 12/56/21
f 39/54/22 37/52/22 42/55/22
f 37/52/23 10/57/23 42/55/23
f 42/58/24 41/59/24 12/60/24
f 42/58/25 36/49/25 41/59/25
f 36/49/26 9/61/26 41/59/26
f 41/62/27 40/63/27 12/64/27
f 41/62/28 35/46/28 40/63/28
f 35/46/29 8/65/29 40/63/29
f 40/66/30 38/67/30 12/68/30
f 40/66/31 34/43/31 38/67/31
f 34/43/32 7/69/32 38/67/32
f 38/70/33 39/71/33 12/72/33
f 38/70/34 33/40/34 39/71/34
f 33/40/35 11/73/35 39/71/35
f 24/38/36 37/52/36 11/51/36
f 24/38/37 31/28/37 37/52/37
f 31/28/38 10/57/38 37/52/38
f 32/36/39 36/49/39 10/48/39
f 32/36/40 29/25/40 36/49/40
f 29/25/41 9/61/41 36/49/41
f 30/34/42 35/46/42 9/45/42
f 30/34/43 27/22/43 35/46/43
f 27/22/44 8/65/44 35/46/44
f 28/32/45 34/43/45 8/42/45
f 28/32/46 25/19/46 34/43/46
f 25/19/47 7/69/47 34/43/47
f 26/30/48 33/40/48 7/39/48
f 26/30/49 23/16/49 33/40/49
f 23/16/50 11/73/50 33/40/50
f 31/28/51 32/36/51 10/57/51
f 31/28/52 22/27/52 32/36/52
f 22/27/53 5/35/53 32/36/53
f 29/25/54 30/34/54 9/61/54
f 29/25/55 21/24/55 30/34/55
f 21/24/56 4/33/56 30/34/56
f 27/22/57 28/74/57 8/65/57
f 27/22/58 19/21/58 28/74/58
f 19/21/59 3/75/59 28/74/59
f 25/19/60 26/30/60 7/69/60
f 25/19/61 15/18/61 26/30/61
f 15/18/62 2/29/62 26/30/62
f 23/16/63 24/38/63 11/73/63
f 23/16/64 16/6/64 24/38/64
f 16/6/65 6/37/65 24/38/65
f 17/76/66 22/27/66 6/26/66
f 17/15/67 20/14/67 22/27/67
f 20/14/68 5/35/68 22/27/68
f 20/77/69 21/24/69 5/23/69
f 20/12/70 18/11/70 21/24/70
f 18/11/71 4/33/71 21/24/71
f 18/78/72 19/21/72 4/20/72
f 18/9/73 13/8/73 19/21/73
f 13/8/74 3/75/74 19/21/74
f 16/6/75 17/79/75 6/37/75
f 16/6/76 14/80/76 17/79/76
f 14/80/77 1/81/77 17/79/77
f 13/82/78 15/18/78 3/17/78
f 13/3/79 14/2/79 15/18/79
f 14/2/80 2/29/80 15/18/80
