# Blender v2.74 (sub 0) OBJ File: 'debris1.blend'
# www.blender.org
mtllib debris1.mtl
v -0.056832 -0.032728 -0.709085
v 0.401820 -0.288141 -0.250874
v -0.257031 -0.600331 -0.217635
v -0.657673 -0.001887 -0.207979
v -0.265116 0.763340 -0.379924
v 0.533838 0.263988 -0.254660
v 0.272194 -0.820883 0.426718
v -0.681170 -0.523382 0.444161
v -0.752220 0.578266 0.477016
v 0.248527 0.679643 0.370106
v 0.905184 -0.030023 0.436053
v -0.045159 -0.028903 0.684604
v -0.165110 -0.340843 -0.513326
v 0.329457 -0.267420 -0.660955
v 0.154940 -0.604652 -0.359759
v 0.720941 0.002616 -0.459231
v 0.287285 0.179809 -0.434615
v -0.455209 0.023724 -0.549895
v -0.518694 -0.344313 -0.322249
v -0.126075 0.326081 -0.473440
v -0.487435 0.322522 -0.267378
v 0.135863 0.478572 -0.243746
v 0.646047 -0.165525 0.078508
v 0.702816 0.196349 0.025690
v 0.003480 -0.526459 0.120582
v 0.394234 -0.544574 0.039993
v -0.824469 -0.224141 -0.011786
v -0.554807 -0.708722 0.031909
v -0.551695 0.696431 0.079351
v -0.732884 0.236227 0.061075
v 0.418918 0.445073 0.002140
v -0.013129 0.618587 0.040419
v 0.638467 -0.475497 0.448897
v -0.192948 -0.567686 0.443232
v -0.750553 0.021317 0.514258
v -0.260839 0.745562 0.507168
v 0.550141 0.363422 0.425132
v 0.151319 -0.451474 0.746752
v 0.367555 -0.027090 0.496487
v -0.414459 -0.285433 0.868896
v -0.352632 0.231660 0.599613
v 0.064095 0.350865 0.532403
vt 0.428562 0.878768
vt 0.439469 0.897661
vt 0.417654 0.897661
vt 0.450377 0.916553
vt 0.461284 0.897661
vt 0.472192 0.916553
vt 0.384932 0.878768
vt 0.395839 0.897661
vt 0.374024 0.897661
vt 0.341300 0.878768
vt 0.352208 0.897661
vt 0.330393 0.897661
vt 0.297670 0.878768
vt 0.308578 0.897661
vt 0.286762 0.897661
vt 0.461284 0.935446
vt 0.406747 0.916553
vt 0.428562 0.916553
vt 0.417654 0.935446
vt 0.363116 0.916553
vt 0.384931 0.916553
vt 0.374023 0.935446
vt 0.319485 0.916553
vt 0.341301 0.916553
vt 0.330393 0.935446
vt 0.275855 0.916553
vt 0.297670 0.916553
vt 0.286763 0.935446
vt 0.439469 0.935446
vt 0.395839 0.935446
vt 0.352208 0.935446
vt 0.308578 0.935446
vt 0.264947 0.935446
vt 0.428561 0.954339
vt 0.450377 0.954339
vt 0.439469 0.973232
vt 0.384931 0.954339
vt 0.406746 0.954339
vt 0.395838 0.973231
vt 0.341301 0.954339
vt 0.363116 0.954339
vt 0.352208 0.973231
vt 0.297671 0.954339
vt 0.319486 0.954339
vt 0.308578 0.973231
vt 0.254040 0.954339
vt 0.275855 0.954339
vt 0.264948 0.973232
vt 0.286763 0.973232
vt 0.275856 0.992124
vt 0.330393 0.973231
vt 0.319486 0.992124
vt 0.374023 0.973231
vt 0.363116 0.992124
vt 0.417654 0.973231
vt 0.406746 0.992124
vt 0.461284 0.973232
vt 0.450376 0.992124
vt 0.472192 0.954339
vt 0.483099 0.935446
vt 0.494007 0.916553
vt 0.483099 0.897661
vt 0.472192 0.878768
vn -0.184700 -0.480000 -0.857600
vn 0.611900 -0.777100 -0.147200
vn -0.388700 -0.392900 -0.833400
vn -0.261300 0.494100 -0.829200
vn 0.272900 0.564300 -0.779100
vn 0.606100 -0.779300 -0.159300
vn 0.050400 -0.983100 0.175900
vn -0.723300 -0.064100 -0.687600
vn -0.828900 0.297000 -0.474000
vn 0.430100 0.817200 -0.383800
vn 0.781200 -0.478200 -0.401200
vn 0.315300 -0.948300 -0.035700
vn -0.857300 0.242400 -0.454200
vn 0.155700 0.959000 0.236900
vn 0.653200 0.724900 -0.218800
vn 0.431700 -0.505800 0.746900
vn -0.076000 -0.848800 0.523300
vn -0.241500 0.064000 0.968300
vn 0.283600 0.291800 0.913500
vn 0.111500 0.128000 0.985500
vn 0.401900 0.238700 0.884000
vn 0.212900 0.078400 0.973900
vn 0.193800 0.344700 0.918500
vn 0.047400 0.359800 0.931800
vn 0.113600 0.156200 0.981200
vn -0.126900 0.197500 0.972000
vn 0.132600 0.445300 0.885500
vn -0.411600 0.459200 0.787200
vn -0.786100 -0.176400 0.592400
vn 0.277100 0.264700 0.923700
vn -0.145300 -0.857700 0.493200
vn -0.345200 -0.676500 0.650500
vn 0.393200 0.310100 0.865600
vn 0.516400 0.224300 0.826500
vn 0.111400 -0.038100 0.993000
vn 0.742400 0.670000 0.003500
vn 0.660600 0.748300 -0.060500
vn 0.728600 0.678400 -0.095100
vn 0.063700 0.971000 -0.230400
vn 0.126200 0.972100 -0.197500
vn -0.326500 0.938300 0.114200
vn -0.999100 -0.005800 -0.041700
vn -0.981000 0.187200 0.050500
vn -0.967100 -0.149700 0.205700
vn -0.082600 -0.918200 0.387500
vn 0.300900 -0.951700 0.061600
vn -0.452800 -0.807100 -0.378800
vn 0.667200 -0.689400 -0.282000
vn 0.785500 -0.482400 -0.387700
vn 0.786100 -0.481800 -0.387100
vn 0.309600 0.860300 -0.405000
vn 0.338700 0.902200 -0.267000
vn 0.595400 0.799300 -0.081700
vn -0.872500 0.356800 -0.333900
vn -0.795200 0.333200 -0.506700
vn -0.796600 0.324600 -0.510000
vn -0.871000 -0.489000 -0.047200
vn -0.717700 -0.447500 -0.533600
vn -0.346500 -0.635900 -0.689600
vn -0.161200 -0.778200 -0.606900
vn -0.013500 -0.987600 0.156500
vn 0.784700 -0.475000 -0.398300
vn 0.827800 -0.206000 -0.521900
vn 0.985600 -0.141000 0.093200
vn 0.685400 0.684700 -0.247900
vn 0.314000 0.619000 -0.719800
vn 0.286500 0.614700 -0.734900
vn 0.505700 0.331200 -0.796600
vn -0.495400 0.028200 -0.868200
vn -0.398100 0.607200 -0.687600
vn -0.818600 0.345500 -0.458800
vn -0.842100 -0.171100 -0.511500
vn -0.428100 -0.420900 -0.799800
vn -0.359100 -0.643300 -0.676200
vn 0.248500 0.701000 -0.668400
vn 0.137100 0.457600 -0.878500
vn 0.372800 0.446800 -0.813300
vn -0.242300 -0.690600 -0.681400
vn -0.139000 -0.618700 -0.773200
vn 0.804500 -0.568800 -0.170700
usemtl None
s off
f 1/1/1 14/2/1 13/3/1
f 2/4/2 14/5/2 16/6/2
f 1/7/3 13/8/3 18/9/3
f 1/10/4 18/11/4 20/12/4
f 1/13/5 20/14/5 17/15/5
f 2/4/6 16/6/6 23/16/6
f 3/17/7 15/18/7 25/19/7
f 4/20/8 19/21/8 27/22/8
f 5/23/9 21/24/9 29/25/9
f 6/26/10 22/27/10 31/28/10
f 2/4/11 23/16/11 26/29/11
f 3/17/12 25/19/12 28/30/12
f 4/20/13 27/22/13 30/31/13
f 5/23/14 29/25/14 32/32/14
f 6/26/15 31/28/15 24/33/15
f 7/34/16 33/35/16 38/36/16
f 8/37/17 34/38/17 40/39/17
f 9/40/18 35/41/18 41/42/18
f 10/43/19 36/44/19 42/45/19
f 11/46/20 37/47/20 39/48/20
f 39/48/21 42/49/21 12/50/21
f 39/48/22 37/47/22 42/49/22
f 37/47/23 10/43/23 42/49/23
f 42/45/24 41/51/24 12/52/24
f 42/45/25 36/44/25 41/51/25
f 36/44/26 9/40/26 41/51/26
f 41/42/27 40/53/27 12/54/27
f 41/42/28 35/41/28 40/53/28
f 35/41/29 8/37/29 40/53/29
f 40/39/30 38/55/30 12/56/30
f 40/39/31 34/38/31 38/55/31
f 34/38/32 7/34/32 38/55/32
f 38/36/33 39/57/33 12/58/33
f 38/36/34 33/35/34 39/57/34
f 33/35/35 11/59/35 39/57/35
f 24/33/36 37/47/36 11/46/36
f 24/33/37 31/28/37 37/47/37
f 31/28/38 10/43/38 37/47/38
f 32/32/39 36/44/39 10/43/39
f 32/32/40 29/25/40 36/44/40
f 29/25/41 9/40/41 36/44/41
f 30/31/42 35/41/42 9/40/42
f 30/31/43 27/22/43 35/41/43
f 27/22/44 8/37/44 35/41/44
f 28/30/45 34/38/45 8/37/45
f 28/30/46 25/19/46 34/38/46
f 25/19/47 7/34/47 34/38/47
f 26/29/48 33/35/48 7/34/48
f 26/29/49 23/16/49 33/35/49
f 23/16/50 11/59/50 33/35/50
f 31/28/51 32/32/51 10/43/51
f 31/28/52 22/27/52 32/32/52
f 22/27/53 5/23/53 32/32/53
f 29/25/54 30/31/54 9/40/54
f 29/25/55 21/24/55 30/31/55
f 21/24/56 4/20/56 30/31/56
f 27/22/57 28/30/57 8/37/57
f 27/22/58 19/21/58 28/30/58
f 19/21/59 3/17/59 28/30/59
f 25/19/60 26/29/60 7/34/60
f 25/19/61 15/18/61 26/29/61
f 15/18/62 2/4/62 26/29/62
f 23/16/63 24/60/63 11/59/63
f 23/16/64 16/6/64 24/60/64
f 16/6/65 6/61/65 24/60/65
f 17/15/66 22/27/66 6/26/66
f 17/15/67 20/14/67 22/27/67
f 20/14/68 5/23/68 22/27/68
f 20/12/69 21/24/69 5/23/69
f 20/12/70 18/11/70 21/24/70
f 18/11/71 4/20/71 21/24/71
f 18/9/72 19/21/72 4/20/72
f 18/9/73 13/8/73 19/21/73
f 13/8/74 3/17/74 19/21/74
f 16/6/75 17/62/75 6/61/75
f 16/6/76 14/5/76 17/62/76
f 14/5/77 1/63/77 17/62/77
f 13/3/78 15/18/78 3/17/78
f 13/3/79 14/2/79 15/18/79
f 14/2/80 2/4/80 15/18/80
