# Blender v2.74 (sub 0) OBJ File: 'debris3.blend'
# www.blender.org
mtllib debris3.mtl
v -0.035458 -0.701552 -0.027325
v 0.480285 -0.304733 0.359362
v -0.264523 -0.390575 0.750948
v -0.686282 -0.362856 0.040362
v -0.206253 -0.285974 -0.610469
v 0.567813 -0.353083 -0.366601
v 0.112487 0.156997 0.521743
v -0.540734 0.170265 0.378972
v -0.513519 0.200027 -0.281140
v 0.153330 0.285309 -0.522723
v 0.386620 0.091815 0.032111
v -0.065340 0.601468 -0.013050
v 0.001019 -0.342913 0.180268
v 0.273549 -0.571228 0.200911
v 0.117203 -0.358135 0.547965
v 0.525655 -0.318285 0.037410
v 0.113829 -0.362400 -0.077051
v -0.309070 -0.603050 -0.080363
v -0.510897 -0.413004 0.356039
v -0.147467 -0.614132 -0.287449
v -0.657812 -0.477378 -0.458967
v 0.207990 -0.419300 -0.656143
v 0.599763 -0.040789 0.197744
v 0.619683 -0.042400 -0.202802
v -0.016055 0.000278 0.937005
v 0.227992 -0.062237 0.387498
v -0.620246 0.023358 0.241203
v -0.570891 -0.018126 0.792926
v -0.362691 -0.047881 -0.293284
v -0.891340 -0.020005 -0.273015
v 0.419099 -0.042712 -0.580028
v -0.034002 0.002518 -0.630750
v 0.392669 0.249618 0.282017
v -0.199600 0.364601 0.525291
v -0.593534 0.394352 0.007183
v -0.149529 0.313116 -0.497607
v 0.228732 0.057427 -0.126881
v 0.054694 0.509520 0.291222
v 0.281462 0.391999 -0.005113
v -0.239910 0.262844 0.134150
v -0.268894 0.540759 -0.176329
v 0.062799 0.486167 -0.326929
vt 0.209537 0.000068
vt 0.239250 0.076918
vt 0.148573 0.055494
vt 0.278755 0.144735
vt 0.308467 0.067884
vt 0.361148 0.144735
vt 0.952701 0.000068
vt 0.982414 0.076917
vt 0.891736 0.055495
vt 0.766910 0.000067
vt 0.796623 0.076918
vt 0.705946 0.055493
vt 0.581118 0.000067
vt 0.610830 0.076917
vt 0.520154 0.055493
vt 0.308467 0.221586
vt 0.092964 0.144735
vt 0.175358 0.144735
vt 0.122676 0.221587
vt 0.836127 0.144735
vt 0.918521 0.144735
vt 0.865839 0.221586
vt 0.650336 0.144734
vt 0.732731 0.144734
vt 0.680049 0.221586
vt 0.464544 0.144734
vt 0.546939 0.144734
vt 0.494257 0.221586
vt 0.256769 0.157428
vt 0.215571 0.228785
vt 0.070978 0.157428
vt 0.029780 0.228785
vt 0.814141 0.157428
vt 0.772945 0.228784
vt 0.628349 0.157427
vt 0.587153 0.228784
vt 0.442558 0.157428
vt 0.401361 0.228785
vt 0.185858 0.305637
vt 0.268253 0.305636
vt 0.215572 0.382487
vt 0.000067 0.305637
vt 0.082461 0.305637
vt 0.029780 0.382487
vt 0.743232 0.305636
vt 0.825626 0.305636
vt 0.772945 0.382487
vt 0.557441 0.305636
vt 0.639836 0.305636
vt 0.587154 0.382486
vt 0.371649 0.305635
vt 0.454044 0.305636
vt 0.401362 0.382486
vt 0.427259 0.394876
vt 0.517936 0.373453
vt 0.488223 0.450303
vt 0.535455 0.292943
vt 0.613050 0.394876
vt 0.703727 0.373453
vt 0.674015 0.450303
vt 0.721246 0.292943
vt 0.798841 0.394877
vt 0.889517 0.373454
vt 0.859804 0.450303
vt 0.907036 0.292943
vt 0.055677 0.394877
vt 0.146353 0.373454
vt 0.116641 0.450304
vt 0.163872 0.292943
vt 0.241468 0.394878
vt 0.332145 0.373453
vt 0.302433 0.450303
vt 0.349664 0.292942
vt 0.958735 0.228785
vt 0.999933 0.157428
vt 0.494258 0.067883
vt 0.680049 0.067883
vt 0.865840 0.067885
vt 0.425039 0.076917
vt 0.334363 0.055494
vt 0.395327 0.000067
vt 0.122677 0.067885
vn -0.415800 -0.423600 0.804800
vn 0.743500 -0.655500 0.132400
vn -0.323200 -0.449200 0.832900
vn -0.301000 -0.935600 -0.184800
vn 0.778400 -0.412100 -0.473600
vn 0.931700 -0.332800 0.145300
vn 0.416800 -0.592900 0.689000
vn -0.876500 -0.095500 0.471800
vn -0.469200 0.579500 -0.666400
vn 0.636200 -0.206400 -0.743400
vn 0.413600 0.331900 0.847800
vn -0.231000 -0.294600 0.927300
vn -0.877300 -0.094700 0.470500
vn -0.692500 0.370000 -0.619300
vn 0.878500 0.099700 -0.467200
vn 0.436000 0.541500 0.718800
vn -0.424600 0.885900 -0.186700
vn -0.582300 0.590100 -0.559300
vn 0.004900 0.699100 -0.715000
vn 0.684800 0.151500 -0.712800
vn 0.516000 0.850500 -0.101800
vn 0.834300 0.067600 -0.547100
vn 0.925200 0.377200 0.040900
vn -0.002500 0.938300 -0.345700
vn -0.147500 0.780300 -0.607700
vn -0.542400 0.577200 -0.610500
vn -0.613900 0.558800 0.557500
vn 0.039000 0.746300 0.664400
vn 0.140400 0.856700 0.496400
vn -0.702400 0.555500 0.445000
vn -0.588000 0.795500 -0.146300
vn 0.374200 0.549700 0.746900
vn 0.515300 0.855200 0.055200
vn 0.605000 0.781300 0.153100
vn 0.930300 0.299600 -0.211700
vn 0.164100 0.917800 -0.361500
vn 0.223700 0.967300 -0.119800
vn 0.778400 0.596600 0.195200
vn -0.041700 0.380500 -0.923800
vn -0.718300 0.030800 -0.695000
vn -0.444400 -0.227900 -0.866300
vn -0.417600 0.695500 -0.584700
vn -0.847500 0.325500 0.419300
vn -0.929500 0.242300 0.278100
vn -0.567000 0.764500 0.306600
vn -0.204100 0.686200 0.698200
vn 0.501600 0.746600 0.437000
vn 0.665900 -0.101700 0.739000
vn 0.450800 0.063100 0.890400
vn 0.687600 0.606300 -0.399500
vn 0.134000 0.274900 -0.952100
vn 0.123100 0.129800 -0.983900
vn -0.110800 -0.003700 -0.993800
vn -0.036900 0.026500 -0.999000
vn -0.016100 0.369500 -0.929100
vn -0.879300 -0.472700 0.058300
vn -0.913900 0.390400 0.111100
vn -0.971800 -0.225100 0.070000
vn -0.664700 -0.597400 0.448600
vn 0.896000 0.245500 0.370000
vn 0.903100 -0.113600 0.414000
vn 0.400200 0.316600 0.860000
vn 0.515600 0.856500 0.022200
vn 0.957600 -0.283900 0.048800
vn 0.966900 -0.224800 0.120300
vn 0.091800 -0.989400 0.112200
vn 0.606500 -0.775600 0.174800
vn -0.296200 -0.696400 -0.653600
vn 0.054400 -0.695500 -0.716500
vn -0.219400 -0.968300 -0.119400
vn -0.490600 -0.855000 0.168100
vn -0.499100 -0.854900 0.141500
vn 0.281100 -0.825500 0.489500
vn 0.127700 -0.991500 -0.023400
vn 0.080200 -0.992300 0.093800
vn 0.260900 -0.693900 -0.671200
vn 0.647900 -0.381800 -0.659100
vn 0.053700 -0.996900 -0.058200
vn -0.640300 -0.748800 0.171300
vn 0.414100 -0.680600 0.604400
usemtl None
s off
f 1/1/1 14/2/1 13/3/1
f 2/4/2 14/5/2 16/6/2
f 1/7/3 13/8/3 18/9/3
f 1/10/4 18/11/4 20/12/4
f 1/13/5 20/14/5 17/15/5
f 2/4/6 16/6/6 23/16/6
f 3/17/7 15/18/7 25/19/7
f 4/20/8 19/21/8 27/22/8
f 5/23/9 21/24/9 29/25/9
f 6/26/10 22/27/10 31/28/10
f 2/29/11 23/16/11 26/30/11
f 3/31/12 25/19/12 28/32/12
f 4/33/13 27/22/13 30/34/13
f 5/35/14 29/25/14 32/36/14
f 6/37/15 31/28/15 24/38/15
f 7/39/16 33/40/16 38/41/16
f 8/42/17 34/43/17 40/44/17
f 9/45/18 35/46/18 41/47/18
f 10/48/19 36/49/19 42/50/19
f 11/51/20 37/52/20 39/53/20
f 39/54/21 42/55/21 12/56/21
f 39/54/22 37/52/22 42/55/22
f 37/52/23 10/57/23 42/55/23
f 42/58/24 41/59/24 12/60/24
f 42/58/25 36/49/25 41/59/25
f 36/49/26 9/61/26 41/59/26
f 41/62/27 40/63/27 12/64/27
f 41/62/28 35/46/28 40/63/28
f 35/46/29 8/65/29 40/63/29
f 40/66/30 38/67/30 12/68/30
f 40/66/31 34/43/31 38/67/31
f 34/43/32 7/69/32 38/67/32
f 38/70/33 39/71/33 12/72/33
f 38/70/34 33/40/34 39/71/34
f 33/40/35 11/73/35 39/71/35
f 24/38/36 37/52/36 11/51/36
f 24/38/37 31/28/37 37/52/37
f 31/28/38 10/57/38 37/52/38
f 32/36/39 36/49/39 10/48/39
f 32/36/40 29/25/40 36/49/40
f 29/25/41 9/61/41 36/49/41
f 30/34/42 35/46/42 9/45/42
f 30/34/43 27/22/43 35/46/43
f 27/22/44 8/65/44 35/46/44
f 28/32/45 34/43/45 8/42/45
f 28/32/46 25/19/46 34/43/46
f 25/19/47 7/69/47 34/43/47
f 26/30/48 33/40/48 7/39/48
f 26/30/49 23/16/49 33/40/49
f 23/16/50 11/73/50 33/40/50
f 31/28/51 32/36/51 10/57/51
f 31/28/52 22/27/52 32/36/52
f 22/27/53 5/35/53 32/36/53
f 29/25/54 30/34/54 9/61/54
f 29/25/55 21/24/55 30/34/55
f 21/24/56 4/33/56 30/34/56
f 27/22/57 28/74/57 8/65/57
f 27/22/58 19/21/58 28/74/58
f 19/21/59 3/75/59 28/74/59
f 25/19/60 26/30/60 7/69/60
f 25/19/61 15/18/61 26/30/61
f 15/18/62 2/29/62 26/30/62
f 23/16/63 24/38/63 11/73/63
f 23/16/64 16/6/64 24/38/64
f 16/6/65 6/37/65 24/38/65
f 17/76/66 22/27/66 6/26/66
f 17/15/67 20/14/67 22/27/67
f 20/14/68 5/35/68 22/27/68
f 20/77/69 21/24/69 5/23/69
f 20/12/70 18/11/70 21/24/70
f 18/11/71 4/33/71 21/24/71
f 18/78/72 19/21/72 4/20/72
f 18/9/73 13/8/73 19/21/73
f 13/8/74 3/75/74 19/21/74
f 16/6/75 17/79/75 6/37/75
f 16/6/76 14/80/76 17/79/76
f 14/80/77 1/81/77 17/79/77
f 13/82/78 15/18/78 3/17/78
f 13/3/79 14/2/79 15/18/79
f 14/2/80 2/29/80 15/18/80
