# Blender v2.74 (sub 0) OBJ File: 'nibblercore.blend'
# www.blender.org
mtllib nibblercore.mtl
v -0.342020 0.939693 0.000000
v -0.642787 0.766044 0.000000
v -0.866025 0.500000 0.000000
v -0.984808 0.173648 0.000000
v -0.984808 -0.173648 0.000000
v -0.866025 -0.500000 0.000000
v -0.642787 -0.766044 0.000000
v -0.296198 0.939693 -0.171010
v -0.556670 0.766044 -0.321394
v -0.750000 0.500000 -0.433013
v -0.852868 0.173648 -0.492404
v -0.852868 -0.173648 -0.492404
v -0.750000 -0.500000 -0.433013
v -0.556670 -0.766044 -0.321394
v -0.296198 -0.939693 -0.171010
v -0.171010 0.939693 -0.296198
v -0.321394 0.766044 -0.556670
v -0.433013 0.500000 -0.750000
v -0.492404 0.173648 -0.852868
v -0.492404 -0.173648 -0.852868
v -0.433013 -0.500000 -0.750000
v -0.321394 -0.766044 -0.556670
v -0.171010 -0.939693 -0.296198
v 0.000000 0.939693 -0.342020
v 0.000000 0.766044 -0.642787
v 0.000000 0.500000 -0.866025
v 0.000000 0.173648 -0.984808
v -0.000000 -0.173648 -0.984808
v 0.000000 -0.500000 -0.866025
v 0.000000 -0.766044 -0.642787
v 0.000000 -0.939693 -0.342020
v -0.000000 1.000000 0.000000
v 0.171010 0.939693 -0.296198
v 0.321394 0.766044 -0.556670
v 0.433013 0.500000 -0.750000
v 0.492404 0.173648 -0.852868
v 0.492404 -0.173648 -0.852868
v 0.433013 -0.500000 -0.750000
v 0.321394 -0.766044 -0.556670
v 0.171010 -0.939693 -0.296198
v 0.296198 0.939693 -0.171010
v 0.556670 0.766044 -0.321394
v 0.750000 0.500000 -0.433013
v 0.852868 0.173648 -0.492404
v 0.852868 -0.173648 -0.492404
v 0.750000 -0.500000 -0.433013
v 0.556670 -0.766044 -0.321394
v 0.296198 -0.939693 -0.171010
v 0.342020 0.939693 0.000000
v 0.642788 0.766044 0.000000
v 0.866025 0.500000 0.000000
v 0.984808 0.173648 0.000000
v 0.984808 -0.173648 0.000000
v 0.866025 -0.500000 0.000000
v 0.642788 -0.766044 0.000000
v 0.342020 -0.939693 -0.000000
v 0.296198 0.939693 0.171010
v 0.556670 0.766044 0.321394
v 0.750000 0.500000 0.433013
v 0.852868 0.173648 0.492404
v 0.852868 -0.173648 0.492404
v 0.750000 -0.500000 0.433013
v 0.556670 -0.766044 0.321394
v 0.296198 -0.939693 0.171010
v 0.171010 0.939693 0.296198
v 0.321394 0.766044 0.556670
v 0.433013 0.500000 0.750000
v 0.492404 0.173648 0.852868
v 0.492404 -0.173648 0.852868
v 0.433013 -0.500000 0.750000
v 0.321394 -0.766044 0.556670
v 0.171010 -0.939693 0.296198
v -0.000000 0.939693 0.342020
v -0.000000 0.766044 0.642787
v -0.000000 0.500000 0.866025
v -0.000000 0.173648 0.984808
v -0.000000 -0.173648 0.984807
v -0.000000 -0.500000 0.866025
v -0.000000 -0.766044 0.642787
v 0.000000 -0.939693 0.342020
v 0.000000 -1.000000 0.000000
v -0.171010 0.939693 0.296198
v -0.321394 0.766044 0.556670
v -0.433013 0.500000 0.750000
v -0.492404 0.173648 0.852868
v -0.492404 -0.173648 0.852868
v -0.433013 -0.500000 0.750000
v -0.321394 -0.766044 0.556670
v -0.171010 -0.939693 0.296198
v -0.296198 0.939693 0.171010
v -0.556670 0.766044 0.321394
v -0.750000 0.500000 0.433013
v -0.852868 0.173648 0.492404
v -0.852868 -0.173648 0.492404
v -0.750000 -0.500000 0.433013
v -0.556670 -0.766044 0.321394
v -0.296198 -0.939693 0.171010
v -0.342020 -0.939693 0.000000
vt 0.494976 0.166260
vt 0.421704 0.166259
vt 0.431148 0.110285
vt 0.500000 0.222802
vt 0.416679 0.222801
vt 0.499999 0.279567
vt 0.416678 0.279566
vt 0.494974 0.336109
vt 0.421702 0.336108
vt 0.485530 0.392082
vt 0.431145 0.392082
vt 0.472805 0.447403
vt 0.443868 0.447402
vt 0.402211 0.110285
vt 0.347827 0.110284
vt 0.360551 0.054964
vt 0.411654 0.166259
vt 0.338383 0.166258
vt 0.333357 0.222800
vt 0.333356 0.279565
vt 0.411652 0.336108
vt 0.338381 0.336107
vt 0.402208 0.392081
vt 0.347824 0.392081
vt 0.389484 0.447402
vt 0.360547 0.447401
vt 0.318890 0.110284
vt 0.264506 0.110284
vt 0.277230 0.054963
vt 0.328333 0.166258
vt 0.255061 0.166257
vt 0.250036 0.222799
vt 0.250035 0.279564
vt 0.328331 0.336107
vt 0.255059 0.336106
vt 0.318887 0.392080
vt 0.264502 0.392080
vt 0.306163 0.447401
vt 0.277225 0.447400
vt 0.235568 0.110283
vt 0.181184 0.110283
vt 0.193908 0.054962
vt 0.245012 0.166257
vt 0.171740 0.166256
vt 0.166714 0.222798
vt 0.166714 0.279563
vt 0.245010 0.336106
vt 0.171738 0.336105
vt 0.235565 0.392079
vt 0.181181 0.392079
vt 0.222841 0.447400
vt 0.193904 0.447399
vt 0.152247 0.110282
vt 0.097863 0.110282
vt 0.110587 0.054961
vt 0.161690 0.166256
vt 0.088418 0.166255
vt 0.083393 0.222797
vt 0.083392 0.279562
vt 0.161688 0.336105
vt 0.088417 0.336104
vt 0.152244 0.392078
vt 0.097860 0.392078
vt 0.139520 0.447399
vt 0.110582 0.447398
vt 0.068926 0.110281
vt 0.014542 0.110281
vt 0.027266 0.054960
vt 0.078369 0.166255
vt 0.005097 0.166254
vt 0.000072 0.222796
vt 0.000071 0.279561
vt 0.078367 0.336104
vt 0.005095 0.336103
vt 0.068922 0.392077
vt 0.014538 0.392077
vt 0.056198 0.447398
vt 0.027261 0.447397
vt 0.985462 0.110291
vt 0.931077 0.110290
vt 0.943801 0.054970
vt 0.994905 0.166264
vt 0.921633 0.166264
vt 0.999929 0.222807
vt 0.916608 0.222806
vt 0.999929 0.279572
vt 0.916607 0.279571
vt 0.994903 0.336114
vt 0.921631 0.336113
vt 0.985459 0.392087
vt 0.931075 0.392087
vt 0.972735 0.447408
vt 0.943798 0.447408
vt 0.902140 0.110290
vt 0.847756 0.110289
vt 0.860480 0.054969
vt 0.911583 0.166264
vt 0.838311 0.166263
vt 0.833286 0.222805
vt 0.833286 0.279570
vt 0.911582 0.336113
vt 0.838310 0.336112
vt 0.902137 0.392087
vt 0.847753 0.392086
vt 0.889413 0.447407
vt 0.860476 0.447407
vt 0.818819 0.110289
vt 0.764434 0.110289
vt 0.777158 0.054968
vt 0.828262 0.166263
vt 0.754990 0.166262
vt 0.749965 0.222804
vt 0.749964 0.279569
vt 0.828260 0.336112
vt 0.754988 0.336111
vt 0.818816 0.392086
vt 0.764432 0.392085
vt 0.806092 0.447406
vt 0.777154 0.447406
vt 0.735497 0.110288
vt 0.681113 0.110288
vt 0.693837 0.054967
vt 0.744940 0.166262
vt 0.671669 0.166261
vt 0.666643 0.222803
vt 0.666642 0.279568
vt 0.744938 0.336111
vt 0.671667 0.336110
vt 0.735494 0.392085
vt 0.681110 0.392084
vt 0.722770 0.447405
vt 0.693833 0.447405
vt 0.652176 0.110287
vt 0.597791 0.110287
vt 0.610515 0.054966
vt 0.661619 0.166261
vt 0.588347 0.166261
vt 0.583322 0.222803
vt 0.583321 0.279567
vt 0.661617 0.336110
vt 0.588345 0.336110
vt 0.652173 0.392084
vt 0.597788 0.392083
vt 0.639449 0.447404
vt 0.610511 0.447404
vt 0.458342 0.000075
vt 0.472810 0.054965
vt 0.443872 0.054965
vt 0.485533 0.110286
vt 0.458336 0.502292
vt 0.375020 0.000074
vt 0.389488 0.054964
vt 0.375015 0.502291
vt 0.291699 0.000074
vt 0.306167 0.054964
vt 0.291693 0.502290
vt 0.208378 0.000072
vt 0.222846 0.054963
vt 0.208372 0.502290
vt 0.125056 0.000072
vt 0.139524 0.054962
vt 0.125050 0.502288
vt 0.041735 0.000071
vt 0.056203 0.054961
vt 0.041729 0.502287
vt 0.958270 0.000080
vt 0.972739 0.054970
vt 0.958266 0.502298
vt 0.874949 0.000079
vt 0.889417 0.054969
vt 0.874944 0.502297
vt 0.791627 0.000078
vt 0.806096 0.054968
vt 0.791623 0.502296
vt 0.708306 0.000078
vt 0.722774 0.054968
vt 0.708301 0.502295
vt 0.624985 0.000077
vt 0.639453 0.054967
vt 0.624979 0.502294
vt 0.541663 0.000076
vt 0.556131 0.054966
vt 0.527194 0.054966
vt 0.568854 0.110287
vt 0.514470 0.110286
vt 0.578297 0.166260
vt 0.505026 0.166260
vt 0.578296 0.336109
vt 0.505024 0.336109
vt 0.568851 0.392083
vt 0.514467 0.392083
vt 0.556127 0.447404
vt 0.527190 0.447403
vt 0.541658 0.502293
vn -0.750400 -0.629700 -0.201100
vn -0.911300 -0.331700 -0.244200
vn -0.965900 -0.000000 -0.258800
vn -0.911300 0.331700 -0.244200
vn -0.750400 0.629700 -0.201100
vn -0.495600 0.858400 -0.132800
vn -0.362800 -0.858400 -0.362800
vn -0.549300 -0.629700 -0.549300
vn -0.667100 -0.331700 -0.667100
vn -0.707100 0.000000 -0.707100
vn -0.667100 0.331700 -0.667100
vn -0.549300 0.629700 -0.549300
vn -0.362800 0.858400 -0.362800
vn -0.132800 -0.858400 -0.495600
vn -0.201100 -0.629700 -0.750400
vn -0.244200 -0.331700 -0.911300
vn -0.258800 0.000000 -0.965900
vn -0.244200 0.331700 -0.911300
vn -0.201100 0.629700 -0.750400
vn -0.132800 0.858400 -0.495600
vn 0.132800 -0.858400 -0.495600
vn 0.201100 -0.629700 -0.750400
vn 0.244200 -0.331700 -0.911300
vn 0.258800 0.000000 -0.965900
vn 0.244200 0.331700 -0.911300
vn 0.201100 0.629700 -0.750400
vn 0.132800 0.858400 -0.495600
vn 0.362800 -0.858400 -0.362800
vn 0.549300 -0.629700 -0.549300
vn 0.667100 -0.331700 -0.667100
vn 0.707100 0.000000 -0.707100
vn 0.667100 0.331700 -0.667100
vn 0.549300 0.629700 -0.549300
vn 0.362800 0.858400 -0.362800
vn 0.495600 -0.858400 -0.132800
vn 0.750400 -0.629700 -0.201100
vn 0.911300 -0.331700 -0.244200
vn 0.965900 -0.000000 -0.258800
vn 0.911300 0.331700 -0.244200
vn 0.750400 0.629700 -0.201100
vn 0.495600 0.858400 -0.132800
vn 0.495600 -0.858400 0.132800
vn 0.750400 -0.629700 0.201100
vn 0.911300 -0.331700 0.244200
vn 0.965900 -0.000000 0.258800
vn 0.911300 0.331700 0.244200
vn 0.750400 0.629700 0.201100
vn 0.495600 0.858400 0.132800
vn 0.362800 -0.858400 0.362800
vn 0.549300 -0.629700 0.549300
vn 0.667100 -0.331700 0.667100
vn 0.707100 0.000000 0.707100
vn 0.667100 0.331700 0.667100
vn 0.549300 0.629700 0.549300
vn 0.362800 0.858400 0.362800
vn 0.132800 -0.858400 0.495600
vn 0.201100 -0.629700 0.750400
vn 0.244200 -0.331700 0.911300
vn 0.258800 -0.000000 0.965900
vn 0.244200 0.331700 0.911300
vn 0.201100 0.629700 0.750400
vn 0.132800 0.858400 0.495600
vn -0.132800 -0.858400 0.495600
vn -0.201100 -0.629700 0.750400
vn -0.244200 -0.331700 0.911300
vn -0.258800 0.000000 0.965900
vn -0.244200 0.331700 0.911300
vn -0.201100 0.629700 0.750400
vn -0.132800 0.858400 0.495600
vn -0.362800 -0.858400 0.362800
vn -0.549300 -0.629700 0.549300
vn -0.667100 -0.331700 0.667100
vn -0.707100 -0.000000 0.707100
vn -0.667100 0.331700 0.667100
vn -0.549300 0.629700 0.549300
vn -0.362800 0.858400 0.362800
vn -0.173500 -0.983700 -0.046500
vn -0.495600 -0.858400 -0.132800
vn -0.173500 0.983700 -0.046500
vn -0.127000 -0.983700 -0.127000
vn -0.127000 0.983700 -0.127000
vn -0.046500 -0.983700 -0.173500
vn -0.046500 0.983700 -0.173500
vn 0.046500 -0.983700 -0.173500
vn 0.046500 0.983700 -0.173500
vn 0.127000 -0.983700 -0.127000
vn 0.127000 0.983700 -0.127000
vn 0.173500 -0.983700 -0.046500
vn 0.173500 0.983700 -0.046500
vn 0.173500 -0.983700 0.046500
vn 0.173500 0.983700 0.046500
vn 0.127000 -0.983700 0.127000
vn 0.127000 0.983700 0.127000
vn 0.046500 -0.983700 0.173500
vn 0.046500 0.983700 0.173500
vn -0.046500 -0.983700 0.173500
vn -0.046500 0.983700 0.173500
vn -0.127000 -0.983700 0.127000
vn -0.127000 0.983700 0.127000
vn -0.173500 -0.983700 0.046500
vn -0.495600 -0.858400 0.132800
vn -0.750400 -0.629700 0.201100
vn -0.911300 -0.331700 0.244200
vn -0.965900 -0.000000 0.258800
vn -0.911300 0.331700 0.244200
vn -0.750400 0.629700 0.201100
vn -0.495600 0.858400 0.132800
vn -0.173500 0.983700 0.046500
usemtl None
s off
f 6/1/1 13/2/1 14/3/1
f 5/4/2 12/5/2 13/2/2
f 4/6/3 11/7/3 12/5/3
f 3/8/4 10/9/4 11/7/4
f 2/10/5 9/11/5 10/9/5
f 1/12/6 8/13/6 9/11/6
f 14/14/7 22/15/7 23/16/7
f 13/17/8 21/18/8 22/15/8
f 12/5/9 20/19/9 21/18/9
f 11/7/10 19/20/10 20/19/10
f 10/21/11 18/22/11 19/20/11
f 9/23/12 17/24/12 18/22/12
f 8/25/13 16/26/13 17/24/13
f 22/27/14 30/28/14 31/29/14
f 21/30/15 29/31/15 30/28/15
f 20/19/16 28/32/16 29/31/16
f 19/20/17 27/33/17 28/32/17
f 18/34/18 26/35/18 27/33/18
f 17/36/19 25/37/19 26/35/19
f 16/38/20 24/39/20 25/37/20
f 30/40/21 39/41/21 40/42/21
f 29/43/22 38/44/22 39/41/22
f 28/32/23 37/45/23 38/44/23
f 27/33/24 36/46/24 37/45/24
f 26/47/25 35/48/25 36/46/25
f 25/49/26 34/50/26 35/48/26
f 24/51/27 33/52/27 34/50/27
f 39/53/28 47/54/28 48/55/28
f 38/56/29 46/57/29 47/54/29
f 37/45/30 45/58/30 46/57/30
f 36/46/31 44/59/31 45/58/31
f 35/60/32 43/61/32 44/59/32
f 34/62/33 42/63/33 43/61/33
f 33/64/34 41/65/34 42/63/34
f 47/66/35 55/67/35 56/68/35
f 46/69/36 54/70/36 55/67/36
f 45/58/37 53/71/37 54/70/37
f 44/59/38 52/72/38 53/71/38
f 43/73/39 51/74/39 52/72/39
f 42/75/40 50/76/40 51/74/40
f 41/77/41 49/78/41 50/76/41
f 55/79/42 63/80/42 64/81/42
f 54/82/43 62/83/43 63/80/43
f 53/84/44 61/85/44 62/83/44
f 52/86/45 60/87/45 61/85/45
f 51/88/46 59/89/46 60/87/46
f 50/90/47 58/91/47 59/89/47
f 49/92/48 57/93/48 58/91/48
f 63/94/49 71/95/49 72/96/49
f 62/97/50 70/98/50 71/95/50
f 61/85/51 69/99/51 70/98/51
f 60/87/52 68/100/52 69/99/52
f 59/101/53 67/102/53 68/100/53
f 58/103/54 66/104/54 67/102/54
f 57/105/55 65/106/55 66/104/55
f 71/107/56 79/108/56 80/109/56
f 70/110/57 78/111/57 79/108/57
f 69/99/58 77/112/58 78/111/58
f 68/100/59 76/113/59 77/112/59
f 67/114/60 75/115/60 76/113/60
f 66/116/61 74/117/61 75/115/61
f 65/118/62 73/119/62 74/117/62
f 79/120/63 88/121/63 89/122/63
f 78/123/64 87/124/64 88/121/64
f 77/112/65 86/125/65 87/124/65
f 76/113/66 85/126/66 86/125/66
f 75/127/67 84/128/67 85/126/67
f 74/129/68 83/130/68 84/128/68
f 73/131/69 82/132/69 83/130/69
f 88/133/70 96/134/70 97/135/70
f 87/136/71 95/137/71 96/134/71
f 86/125/72 94/138/72 95/137/72
f 85/126/73 93/139/73 94/138/73
f 84/140/74 92/141/74 93/139/74
f 83/142/75 91/143/75 92/141/75
f 82/144/76 90/145/76 91/143/76
f 81/146/77 98/147/77 15/148/77
f 7/149/78 14/3/78 15/148/78
f 1/12/79 32/150/79 8/13/79
f 81/151/80 15/152/80 23/16/80
f 8/25/81 32/153/81 16/26/81
f 81/154/82 23/155/82 31/29/82
f 16/38/83 32/156/83 24/39/83
f 81/157/84 31/158/84 40/42/84
f 24/51/85 32/159/85 33/52/85
f 81/160/86 40/161/86 48/55/86
f 33/64/87 32/162/87 41/65/87
f 81/163/88 48/164/88 56/68/88
f 41/77/89 32/165/89 49/78/89
f 81/166/90 56/167/90 64/81/90
f 49/92/91 32/168/91 57/93/91
f 81/169/92 64/170/92 72/96/92
f 57/105/93 32/171/93 65/106/93
f 81/172/94 72/173/94 80/109/94
f 65/118/95 32/174/95 73/119/95
f 81/175/96 80/176/96 89/122/96
f 73/131/97 32/177/97 82/132/97
f 81/178/98 89/179/98 97/135/98
f 82/144/99 32/180/99 90/145/99
f 81/181/100 97/182/100 98/183/100
f 96/184/101 7/185/101 98/183/101
f 95/186/102 6/187/102 7/185/102
f 94/138/103 5/4/103 6/187/103
f 93/139/104 4/6/104 5/4/104
f 92/188/105 3/189/105 4/6/105
f 91/190/106 2/191/106 3/189/106
f 90/192/107 1/193/107 2/191/107
f 90/192/108 32/194/108 1/193/108
f 7/149/1 6/1/1 14/3/1
f 6/1/2 5/4/2 13/2/2
f 5/4/3 4/6/3 12/5/3
f 4/6/4 3/8/4 11/7/4
f 3/8/5 2/10/5 10/9/5
f 2/10/6 1/12/6 9/11/6
f 15/152/7 14/14/7 23/16/7
f 14/14/8 13/17/8 22/15/8
f 13/17/9 12/5/9 21/18/9
f 12/5/10 11/7/10 20/19/10
f 11/7/11 10/21/11 19/20/11
f 10/21/12 9/23/12 18/22/12
f 9/23/13 8/25/13 17/24/13
f 23/155/14 22/27/14 31/29/14
f 22/27/15 21/30/15 30/28/15
f 21/30/16 20/19/16 29/31/16
f 20/19/17 19/20/17 28/32/17
f 19/20/18 18/34/18 27/33/18
f 18/34/19 17/36/19 26/35/19
f 17/36/20 16/38/20 25/37/20
f 31/158/21 30/40/21 40/42/21
f 30/40/22 29/43/22 39/41/22
f 29/43/23 28/32/23 38/44/23
f 28/32/24 27/33/24 37/45/24
f 27/33/25 26/47/25 36/46/25
f 26/47/26 25/49/26 35/48/26
f 25/49/27 24/51/27 34/50/27
f 40/161/28 39/53/28 48/55/28
f 39/53/29 38/56/29 47/54/29
f 38/56/30 37/45/30 46/57/30
f 37/45/31 36/46/31 45/58/31
f 36/46/32 35/60/32 44/59/32
f 35/60/33 34/62/33 43/61/33
f 34/62/34 33/64/34 42/63/34
f 48/164/35 47/66/35 56/68/35
f 47/66/36 46/69/36 55/67/36
f 46/69/37 45/58/37 54/70/37
f 45/58/38 44/59/38 53/71/38
f 44/59/39 43/73/39 52/72/39
f 43/73/40 42/75/40 51/74/40
f 42/75/41 41/77/41 50/76/41
f 56/167/42 55/79/42 64/81/42
f 55/79/43 54/82/43 63/80/43
f 54/82/44 53/84/44 62/83/44
f 53/84/45 52/86/45 61/85/45
f 52/86/46 51/88/46 60/87/46
f 51/88/47 50/90/47 59/89/47
f 50/90/48 49/92/48 58/91/48
f 64/170/49 63/94/49 72/96/49
f 63/94/50 62/97/50 71/95/50
f 62/97/51 61/85/51 70/98/51
f 61/85/52 60/87/52 69/99/52
f 60/87/53 59/101/53 68/100/53
f 59/101/54 58/103/54 67/102/54
f 58/103/55 57/105/55 66/104/55
f 72/173/56 71/107/56 80/109/56
f 71/107/57 70/110/57 79/108/57
f 70/110/58 69/99/58 78/111/58
f 69/99/59 68/100/59 77/112/59
f 68/100/60 67/114/60 76/113/60
f 67/114/61 66/116/61 75/115/61
f 66/116/62 65/118/62 74/117/62
f 80/176/63 79/120/63 89/122/63
f 79/120/64 78/123/64 88/121/64
f 78/123/65 77/112/65 87/124/65
f 77/112/66 76/113/66 86/125/66
f 76/113/67 75/127/67 85/126/67
f 75/127/68 74/129/68 84/128/68
f 74/129/69 73/131/69 83/130/69
f 89/179/70 88/133/70 97/135/70
f 88/133/71 87/136/71 96/134/71
f 87/136/72 86/125/72 95/137/72
f 86/125/73 85/126/73 94/138/73
f 85/126/74 84/140/74 93/139/74
f 84/140/75 83/142/75 92/141/75
f 83/142/76 82/144/76 91/143/76
f 98/147/78 7/149/78 15/148/78
f 97/182/101 96/184/101 98/183/101
f 96/184/102 95/186/102 7/185/102
f 95/186/103 94/138/103 6/187/103
f 94/138/104 93/139/104 5/4/104
f 93/139/105 92/188/105 4/6/105
f 92/188/106 91/190/106 3/189/106
f 91/190/107 90/192/107 2/191/107
