# Blender v2.74 (sub 0) OBJ File: 'nibblercore.blend'
# www.blender.org
mtllib nibblercore.mtl
v -0.342020 0.000000 0.939693
v -0.642787 0.000000 0.766044
v -0.866025 0.000000 0.500000
v -0.984808 0.000000 0.173648
v -0.984808 0.000000 -0.173648
v -0.866025 0.000000 -0.500000
v -0.642787 0.000000 -0.766044
v -0.296198 0.171010 0.939693
v -0.556670 0.321394 0.766044
v -0.750000 0.433013 0.500000
v -0.852868 0.492404 0.173648
v -0.852868 0.492404 -0.173648
v -0.750000 0.433013 -0.500000
v -0.556670 0.321394 -0.766044
v -0.296198 0.171010 -0.939693
v -0.171010 0.296198 0.939693
v -0.321394 0.556670 0.766044
v -0.433013 0.750000 0.500000
v -0.492404 0.852868 0.173648
v -0.492404 0.852868 -0.173648
v -0.433013 0.750000 -0.500000
v -0.321394 0.556670 -0.766044
v -0.171010 0.296198 -0.939693
v 0.000000 0.342020 0.939693
v 0.000000 0.642787 0.766044
v 0.000000 0.866025 0.500000
v 0.000000 0.984808 0.173648
v -0.000000 0.984808 -0.173648
v 0.000000 0.866025 -0.500000
v 0.000000 0.642787 -0.766044
v 0.000000 0.342020 -0.939693
v -0.000000 -0.000000 1.000000
v 0.171010 0.296198 0.939693
v 0.321394 0.556670 0.766044
v 0.433013 0.750000 0.500000
v 0.492404 0.852868 0.173648
v 0.492404 0.852868 -0.173648
v 0.433013 0.750000 -0.500000
v 0.321394 0.556670 -0.766044
v 0.171010 0.296198 -0.939693
v 0.296198 0.171010 0.939693
v 0.556670 0.321394 0.766044
v 0.750000 0.433013 0.500000
v 0.852868 0.492404 0.173648
v 0.852868 0.492404 -0.173648
v 0.750000 0.433013 -0.500000
v 0.556670 0.321394 -0.766044
v 0.296198 0.171010 -0.939693
v 0.342020 -0.000000 0.939693
v 0.642788 -0.000000 0.766044
v 0.866025 -0.000000 0.500000
v 0.984808 -0.000000 0.173648
v 0.984808 -0.000000 -0.173648
v 0.866025 -0.000000 -0.500000
v 0.642788 -0.000000 -0.766044
v 0.342020 0.000000 -0.939693
v 0.296198 -0.171010 0.939693
v 0.556670 -0.321394 0.766044
v 0.750000 -0.433013 0.500000
v 0.852868 -0.492404 0.173648
v 0.852868 -0.492404 -0.173648
v 0.750000 -0.433013 -0.500000
v 0.556670 -0.321394 -0.766044
v 0.296198 -0.171010 -0.939693
v 0.171010 -0.296198 0.939693
v 0.321394 -0.556670 0.766044
v 0.433013 -0.750000 0.500000
v 0.492404 -0.852868 0.173648
v 0.492404 -0.852868 -0.173648
v 0.433013 -0.750000 -0.500000
v 0.321394 -0.556670 -0.766044
v 0.171010 -0.296198 -0.939693
v -0.000000 -0.342020 0.939693
v -0.000000 -0.642787 0.766044
v -0.000000 -0.866025 0.500000
v -0.000000 -0.984808 0.173648
v -0.000000 -0.984807 -0.173648
v -0.000000 -0.866025 -0.500000
v -0.000000 -0.642787 -0.766044
v 0.000000 -0.342020 -0.939693
v 0.000000 0.000000 -1.000000
v -0.171010 -0.296198 0.939693
v -0.321394 -0.556670 0.766044
v -0.433013 -0.750000 0.500000
v -0.492404 -0.852868 0.173648
v -0.492404 -0.852868 -0.173648
v -0.433013 -0.750000 -0.500000
v -0.321394 -0.556670 -0.766044
v -0.171010 -0.296198 -0.939693
v -0.296198 -0.171010 0.939693
v -0.556670 -0.321394 0.766044
v -0.750000 -0.433013 0.500000
v -0.852868 -0.492404 0.173648
v -0.852868 -0.492404 -0.173648
v -0.750000 -0.433013 -0.500000
v -0.556670 -0.321394 -0.766044
v -0.296198 -0.171010 -0.939693
v -0.342020 -0.000000 -0.939693
vt 0.373294 0.613454
vt 0.355709 0.613454
vt 0.357976 0.600020
vt 0.374500 0.627024
vt 0.354503 0.627024
vt 0.374500 0.640648
vt 0.354503 0.640648
vt 0.373294 0.654218
vt 0.355709 0.654218
vt 0.371027 0.667652
vt 0.357975 0.667651
vt 0.367973 0.680928
vt 0.361028 0.680928
vt 0.351031 0.600020
vt 0.337979 0.600020
vt 0.341032 0.586743
vt 0.353297 0.613454
vt 0.335712 0.613454
vt 0.334506 0.627024
vt 0.334506 0.640647
vt 0.353297 0.654218
vt 0.335712 0.654217
vt 0.351030 0.667651
vt 0.337978 0.667651
vt 0.347976 0.680928
vt 0.341031 0.680928
vt 0.331034 0.600020
vt 0.317981 0.600020
vt 0.321035 0.586743
vt 0.333300 0.613454
vt 0.315715 0.613454
vt 0.314509 0.627024
vt 0.314509 0.640647
vt 0.333300 0.654217
vt 0.315714 0.654217
vt 0.331033 0.667651
vt 0.317981 0.667651
vt 0.327979 0.680928
vt 0.321034 0.680928
vt 0.311037 0.600020
vt 0.297984 0.600020
vt 0.301038 0.586743
vt 0.313303 0.613454
vt 0.295718 0.613453
vt 0.294512 0.627023
vt 0.294511 0.640647
vt 0.313302 0.654217
vt 0.295717 0.654217
vt 0.311036 0.667651
vt 0.297984 0.667651
vt 0.307982 0.680928
vt 0.301037 0.680928
vt 0.291039 0.600020
vt 0.277987 0.600019
vt 0.281041 0.586743
vt 0.293306 0.613453
vt 0.275721 0.613453
vt 0.274514 0.627023
vt 0.274514 0.640647
vt 0.293305 0.654217
vt 0.275720 0.654217
vt 0.291039 0.667651
vt 0.277986 0.667650
vt 0.287985 0.680928
vt 0.281040 0.680927
vt 0.271042 0.600019
vt 0.257990 0.600019
vt 0.261044 0.586742
vt 0.273309 0.613453
vt 0.255723 0.613453
vt 0.254517 0.627023
vt 0.254517 0.640646
vt 0.273308 0.654217
vt 0.255723 0.654217
vt 0.271041 0.667650
vt 0.257989 0.667650
vt 0.267988 0.680927
vt 0.261043 0.680927
vt 0.491011 0.600022
vt 0.477959 0.600021
vt 0.481012 0.586745
vt 0.493277 0.613455
vt 0.475692 0.613455
vt 0.494483 0.627025
vt 0.474486 0.627025
vt 0.494483 0.640649
vt 0.474486 0.640649
vt 0.493277 0.654219
vt 0.475692 0.654219
vt 0.491010 0.667653
vt 0.477958 0.667653
vt 0.487956 0.680930
vt 0.481012 0.680930
vt 0.471014 0.600021
vt 0.457961 0.600021
vt 0.461015 0.586744
vt 0.473280 0.613455
vt 0.455695 0.613455
vt 0.454489 0.627025
vt 0.454489 0.640649
vt 0.473280 0.654219
vt 0.455694 0.654219
vt 0.471013 0.667653
vt 0.457961 0.667652
vt 0.467959 0.680930
vt 0.461014 0.680929
vt 0.451017 0.600021
vt 0.437964 0.600021
vt 0.441018 0.586744
vt 0.453283 0.613455
vt 0.435698 0.613455
vt 0.434492 0.627025
vt 0.434491 0.640648
vt 0.453283 0.654219
vt 0.435697 0.654219
vt 0.451016 0.667652
vt 0.437964 0.667652
vt 0.447962 0.680929
vt 0.441017 0.680929
vt 0.431019 0.600021
vt 0.417967 0.600021
vt 0.421021 0.586744
vt 0.433286 0.613455
vt 0.415701 0.613455
vt 0.414494 0.627025
vt 0.414494 0.640648
vt 0.433285 0.654218
vt 0.415700 0.654218
vt 0.431019 0.667652
vt 0.417967 0.667652
vt 0.427965 0.680929
vt 0.421020 0.680929
vt 0.411022 0.600021
vt 0.397970 0.600021
vt 0.401024 0.586744
vt 0.413289 0.613455
vt 0.395703 0.613454
vt 0.394497 0.627024
vt 0.394497 0.640648
vt 0.413288 0.654218
vt 0.395703 0.654218
vt 0.411022 0.667652
vt 0.397969 0.667652
vt 0.407968 0.680929
vt 0.401023 0.680929
vt 0.364502 0.573570
vt 0.367974 0.586743
vt 0.361030 0.586743
vt 0.371028 0.600020
vt 0.364501 0.694102
vt 0.344505 0.573570
vt 0.347977 0.586743
vt 0.344504 0.694102
vt 0.324508 0.573569
vt 0.327980 0.586743
vt 0.324507 0.694102
vt 0.304511 0.573569
vt 0.307983 0.586743
vt 0.304509 0.694101
vt 0.284514 0.573569
vt 0.287986 0.586743
vt 0.284512 0.694101
vt 0.264517 0.573569
vt 0.267989 0.586742
vt 0.264515 0.694101
vt 0.484485 0.573571
vt 0.487957 0.586745
vt 0.484484 0.694103
vt 0.464488 0.573571
vt 0.467960 0.586744
vt 0.464487 0.694103
vt 0.444491 0.573571
vt 0.447963 0.586744
vt 0.444490 0.694103
vt 0.424494 0.573570
vt 0.427966 0.586744
vt 0.424492 0.694103
vt 0.404496 0.573570
vt 0.407969 0.586744
vt 0.404495 0.694102
vt 0.384499 0.573570
vt 0.387972 0.586744
vt 0.381027 0.586744
vt 0.391025 0.600021
vt 0.377973 0.600020
vt 0.393291 0.613454
vt 0.375706 0.613454
vt 0.393291 0.654218
vt 0.375706 0.654218
vt 0.391024 0.667652
vt 0.377972 0.667652
vt 0.387971 0.680929
vt 0.381026 0.680929
vt 0.384498 0.694102
vn -0.750400 0.201100 -0.629700
vn -0.911300 0.244200 -0.331700
vn -0.965900 0.258800 -0.000000
vn -0.911300 0.244200 0.331700
vn -0.750400 0.201100 0.629700
vn -0.495600 0.132800 0.858400
vn -0.362800 0.362800 -0.858400
vn -0.549300 0.549300 -0.629700
vn -0.667100 0.667100 -0.331700
vn -0.707100 0.707100 0.000000
vn -0.667100 0.667100 0.331700
vn -0.549300 0.549300 0.629700
vn -0.362800 0.362800 0.858400
vn -0.132800 0.495600 -0.858400
vn -0.201100 0.750400 -0.629700
vn -0.244200 0.911300 -0.331700
vn -0.258800 0.965900 0.000000
vn -0.244200 0.911300 0.331700
vn -0.201100 0.750400 0.629700
vn -0.132800 0.495600 0.858400
vn 0.132800 0.495600 -0.858400
vn 0.201100 0.750400 -0.629700
vn 0.244200 0.911300 -0.331700
vn 0.258800 0.965900 0.000000
vn 0.244200 0.911300 0.331700
vn 0.201100 0.750400 0.629700
vn 0.132800 0.495600 0.858400
vn 0.362800 0.362800 -0.858400
vn 0.549300 0.549300 -0.629700
vn 0.667100 0.667100 -0.331700
vn 0.707100 0.707100 0.000000
vn 0.667100 0.667100 0.331700
vn 0.549300 0.549300 0.629700
vn 0.362800 0.362800 0.858400
vn 0.495600 0.132800 -0.858400
vn 0.750400 0.201100 -0.629700
vn 0.911300 0.244200 -0.331700
vn 0.965900 0.258800 0.000000
vn 0.911300 0.244200 0.331700
vn 0.750400 0.201100 0.629700
vn 0.495600 0.132800 0.858400
vn 0.495600 -0.132800 -0.858400
vn 0.750400 -0.201100 -0.629700
vn 0.911300 -0.244200 -0.331700
vn 0.965900 -0.258800 0.000000
vn 0.911300 -0.244200 0.331700
vn 0.750400 -0.201100 0.629700
vn 0.495600 -0.132800 0.858400
vn 0.362800 -0.362800 -0.858400
vn 0.549300 -0.549300 -0.629700
vn 0.667100 -0.667100 -0.331700
vn 0.707100 -0.707100 -0.000000
vn 0.667100 -0.667100 0.331700
vn 0.549300 -0.549300 0.629700
vn 0.362800 -0.362800 0.858400
vn 0.132800 -0.495600 -0.858400
vn 0.201100 -0.750400 -0.629700
vn 0.244200 -0.911300 -0.331700
vn 0.258800 -0.965900 -0.000000
vn 0.244200 -0.911300 0.331700
vn 0.201100 -0.750400 0.629700
vn 0.132800 -0.495600 0.858400
vn -0.132800 -0.495600 -0.858400
vn -0.201100 -0.750400 -0.629700
vn -0.244200 -0.911300 -0.331700
vn -0.258800 -0.965900 -0.000000
vn -0.244200 -0.911300 0.331700
vn -0.201100 -0.750400 0.629700
vn -0.132800 -0.495600 0.858400
vn -0.362800 -0.362800 -0.858400
vn -0.549300 -0.549300 -0.629700
vn -0.667100 -0.667100 -0.331700
vn -0.707100 -0.707100 -0.000000
vn -0.667100 -0.667100 0.331700
vn -0.549300 -0.549300 0.629700
vn -0.362800 -0.362800 0.858400
vn -0.173500 0.046500 -0.983700
vn -0.495600 0.132800 -0.858400
vn -0.173500 0.046500 0.983700
vn -0.127000 0.127000 -0.983700
vn -0.127000 0.127000 0.983700
vn -0.046500 0.173500 -0.983700
vn -0.046500 0.173500 0.983700
vn 0.046500 0.173500 -0.983700
vn 0.046500 0.173500 0.983700
vn 0.127000 0.127000 -0.983700
vn 0.127000 0.127000 0.983700
vn 0.173500 0.046500 -0.983700
vn 0.173500 0.046500 0.983700
vn 0.173500 -0.046500 -0.983700
vn 0.173500 -0.046500 0.983700
vn 0.127000 -0.127000 -0.983700
vn 0.127000 -0.127000 0.983700
vn 0.046500 -0.173500 -0.983700
vn 0.046500 -0.173500 0.983700
vn -0.046500 -0.173500 -0.983700
vn -0.046500 -0.173500 0.983700
vn -0.127000 -0.127000 -0.983700
vn -0.127000 -0.127000 0.983700
vn -0.173500 -0.046500 -0.983700
vn -0.495600 -0.132800 -0.858400
vn -0.750400 -0.201100 -0.629700
vn -0.911300 -0.244200 -0.331700
vn -0.965900 -0.258800 -0.000000
vn -0.911300 -0.244200 0.331700
vn -0.750400 -0.201100 0.629700
vn -0.495600 -0.132800 0.858400
vn -0.173500 -0.046500 0.983700
usemtl None
s off
f 6/1/1 13/2/1 14/3/1
f 5/4/2 12/5/2 13/2/2
f 4/6/3 11/7/3 12/5/3
f 3/8/4 10/9/4 11/7/4
f 2/10/5 9/11/5 10/9/5
f 1/12/6 8/13/6 9/11/6
f 14/14/7 22/15/7 23/16/7
f 13/17/8 21/18/8 22/15/8
f 12/5/9 20/19/9 21/18/9
f 11/7/10 19/20/10 20/19/10
f 10/21/11 18/22/11 19/20/11
f 9/23/12 17/24/12 18/22/12
f 8/25/13 16/26/13 17/24/13
f 22/27/14 30/28/14 31/29/14
f 21/30/15 29/31/15 30/28/15
f 20/19/16 28/32/16 29/31/16
f 19/20/17 27/33/17 28/32/17
f 18/34/18 26/35/18 27/33/18
f 17/36/19 25/37/19 26/35/19
f 16/38/20 24/39/20 25/37/20
f 30/40/21 39/41/21 40/42/21
f 29/43/22 38/44/22 39/41/22
f 28/32/23 37/45/23 38/44/23
f 27/33/24 36/46/24 37/45/24
f 26/47/25 35/48/25 36/46/25
f 25/49/26 34/50/26 35/48/26
f 24/51/27 33/52/27 34/50/27
f 39/53/28 47/54/28 48/55/28
f 38/56/29 46/57/29 47/54/29
f 37/45/30 45/58/30 46/57/30
f 36/46/31 44/59/31 45/58/31
f 35/60/32 43/61/32 44/59/32
f 34/62/33 42/63/33 43/61/33
f 33/64/34 41/65/34 42/63/34
f 47/66/35 55/67/35 56/68/35
f 46/69/36 54/70/36 55/67/36
f 45/58/37 53/71/37 54/70/37
f 44/59/38 52/72/38 53/71/38
f 43/73/39 51/74/39 52/72/39
f 42/75/40 50/76/40 51/74/40
f 41/77/41 49/78/41 50/76/41
f 55/79/42 63/80/42 64/81/42
f 54/82/43 62/83/43 63/80/43
f 53/84/44 61/85/44 62/83/44
f 52/86/45 60/87/45 61/85/45
f 51/88/46 59/89/46 60/87/46
f 50/90/47 58/91/47 59/89/47
f 49/92/48 57/93/48 58/91/48
f 63/94/49 71/95/49 72/96/49
f 62/97/50 70/98/50 71/95/50
f 61/85/51 69/99/51 70/98/51
f 60/87/52 68/100/52 69/99/52
f 59/101/53 67/102/53 68/100/53
f 58/103/54 66/104/54 67/102/54
f 57/105/55 65/106/55 66/104/55
f 71/107/56 79/108/56 80/109/56
f 70/110/57 78/111/57 79/108/57
f 69/99/58 77/112/58 78/111/58
f 68/100/59 76/113/59 77/112/59
f 67/114/60 75/115/60 76/113/60
f 66/116/61 74/117/61 75/115/61
f 65/118/62 73/119/62 74/117/62
f 79/120/63 88/121/63 89/122/63
f 78/123/64 87/124/64 88/121/64
f 77/112/65 86/125/65 87/124/65
f 76/113/66 85/126/66 86/125/66
f 75/127/67 84/128/67 85/126/67
f 74/129/68 83/130/68 84/128/68
f 73/131/69 82/132/69 83/130/69
f 88/133/70 96/134/70 97/135/70
f 87/136/71 95/137/71 96/134/71
f 86/125/72 94/138/72 95/137/72
f 85/126/73 93/139/73 94/138/73
f 84/140/74 92/141/74 93/139/74
f 83/142/75 91/143/75 92/141/75
f 82/144/76 90/145/76 91/143/76
f 81/146/77 98/147/77 15/148/77
f 7/149/78 14/3/78 15/148/78
f 1/12/79 32/150/79 8/13/79
f 81/151/80 15/152/80 23/16/80
f 8/25/81 32/153/81 16/26/81
f 81/154/82 23/155/82 31/29/82
f 16/38/83 32/156/83 24/39/83
f 81/157/84 31/158/84 40/42/84
f 24/51/85 32/159/85 33/52/85
f 81/160/86 40/161/86 48/55/86
f 33/64/87 32/162/87 41/65/87
f 81/163/88 48/164/88 56/68/88
f 41/77/89 32/165/89 49/78/89
f 81/166/90 56/167/90 64/81/90
f 49/92/91 32/168/91 57/93/91
f 81/169/92 64/170/92 72/96/92
f 57/105/93 32/171/93 65/106/93
f 81/172/94 72/173/94 80/109/94
f 65/118/95 32/174/95 73/119/95
f 81/175/96 80/176/96 89/122/96
f 73/131/97 32/177/97 82/132/97
f 81/178/98 89/179/98 97/135/98
f 82/144/99 32/180/99 90/145/99
f 81/181/100 97/182/100 98/183/100
f 96/184/101 7/185/101 98/183/101
f 95/186/102 6/187/102 7/185/102
f 94/138/103 5/4/103 6/187/103
f 93/139/104 4/6/104 5/4/104
f 92/188/105 3/189/105 4/6/105
f 91/190/106 2/191/106 3/189/106
f 90/192/107 1/193/107 2/191/107
f 90/192/108 32/194/108 1/193/108
f 7/149/1 6/1/1 14/3/1
f 6/1/2 5/4/2 13/2/2
f 5/4/3 4/6/3 12/5/3
f 4/6/4 3/8/4 11/7/4
f 3/8/5 2/10/5 10/9/5
f 2/10/6 1/12/6 9/11/6
f 15/152/7 14/14/7 23/16/7
f 14/14/8 13/17/8 22/15/8
f 13/17/9 12/5/9 21/18/9
f 12/5/10 11/7/10 20/19/10
f 11/7/11 10/21/11 19/20/11
f 10/21/12 9/23/12 18/22/12
f 9/23/13 8/25/13 17/24/13
f 23/155/14 22/27/14 31/29/14
f 22/27/15 21/30/15 30/28/15
f 21/30/16 20/19/16 29/31/16
f 20/19/17 19/20/17 28/32/17
f 19/20/18 18/34/18 27/33/18
f 18/34/19 17/36/19 26/35/19
f 17/36/20 16/38/20 25/37/20
f 31/158/21 30/40/21 40/42/21
f 30/40/22 29/43/22 39/41/22
f 29/43/23 28/32/23 38/44/23
f 28/32/24 27/33/24 37/45/24
f 27/33/25 26/47/25 36/46/25
f 26/47/26 25/49/26 35/48/26
f 25/49/27 24/51/27 34/50/27
f 40/161/28 39/53/28 48/55/28
f 39/53/29 38/56/29 47/54/29
f 38/56/30 37/45/30 46/57/30
f 37/45/31 36/46/31 45/58/31
f 36/46/32 35/60/32 44/59/32
f 35/60/33 34/62/33 43/61/33
f 34/62/34 33/64/34 42/63/34
f 48/164/35 47/66/35 56/68/35
f 47/66/36 46/69/36 55/67/36
f 46/69/37 45/58/37 54/70/37
f 45/58/38 44/59/38 53/71/38
f 44/59/39 43/73/39 52/72/39
f 43/73/40 42/75/40 51/74/40
f 42/75/41 41/77/41 50/76/41
f 56/167/42 55/79/42 64/81/42
f 55/79/43 54/82/43 63/80/43
f 54/82/44 53/84/44 62/83/44
f 53/84/45 52/86/45 61/85/45
f 52/86/46 51/88/46 60/87/46
f 51/88/47 50/90/47 59/89/47
f 50/90/48 49/92/48 58/91/48
f 64/170/49 63/94/49 72/96/49
f 63/94/50 62/97/50 71/95/50
f 62/97/51 61/85/51 70/98/51
f 61/85/52 60/87/52 69/99/52
f 60/87/53 59/101/53 68/100/53
f 59/101/54 58/103/54 67/102/54
f 58/103/55 57/105/55 66/104/55
f 72/173/56 71/107/56 80/109/56
f 71/107/57 70/110/57 79/108/57
f 70/110/58 69/99/58 78/111/58
f 69/99/59 68/100/59 77/112/59
f 68/100/60 67/114/60 76/113/60
f 67/114/61 66/116/61 75/115/61
f 66/116/62 65/118/62 74/117/62
f 80/176/63 79/120/63 89/122/63
f 79/120/64 78/123/64 88/121/64
f 78/123/65 77/112/65 87/124/65
f 77/112/66 76/113/66 86/125/66
f 76/113/67 75/127/67 85/126/67
f 75/127/68 74/129/68 84/128/68
f 74/129/69 73/131/69 83/130/69
f 89/179/70 88/133/70 97/135/70
f 88/133/71 87/136/71 96/134/71
f 87/136/72 86/125/72 95/137/72
f 86/125/73 85/126/73 94/138/73
f 85/126/74 84/140/74 93/139/74
f 84/140/75 83/142/75 92/141/75
f 83/142/76 82/144/76 91/143/76
f 98/147/78 7/149/78 15/148/78
f 97/182/101 96/184/101 98/183/101
f 96/184/102 95/186/102 7/185/102
f 95/186/103 94/138/103 6/187/103
f 94/138/104 93/139/104 5/4/104
f 93/139/105 92/188/105 4/6/105
f 92/188/106 91/190/106 3/189/106
f 91/190/107 90/192/107 2/191/107
