# Blender v2.74 (sub 0) OBJ File: 'tearshot.blend'
# www.blender.org
mtllib tearshot.mtl
v -0.587785 -0.809017 -0.000000
v -0.951057 -0.309017 -0.000000
v -0.951056 0.275095 0.000000
v -0.587785 1.611395 0.000000
v -0.293893 -0.809017 0.509037
v -0.475528 -0.309017 0.823639
v -0.475528 0.275095 0.823639
v -0.293893 1.611395 0.509037
v 0.293893 -0.809017 0.509037
v 0.475528 -0.309017 0.823639
v 0.475528 0.275095 0.823639
v 0.293893 1.611395 0.509037
v 0.587785 -0.809017 -0.000000
v 0.951057 -0.309017 -0.000000
v 0.951057 0.275095 -0.000000
v 0.587785 1.611395 -0.000000
v 0.000000 3.139259 0.000000
v 0.293893 -0.809017 -0.509037
v 0.475528 -0.309017 -0.823639
v 0.475528 0.275095 -0.823639
v 0.293893 1.611396 -0.509037
v 0.000000 -1.000000 -0.000000
v -0.293893 -0.809017 -0.509037
v -0.475529 -0.309017 -0.823639
v -0.475528 0.275095 -0.823639
v -0.293893 1.611396 -0.509037
vt 0.617362 0.349609
vt 0.625000 0.407338
vt 0.585007 0.407338
vt 0.625000 0.431901
vt 0.585007 0.431901
vt 0.617362 0.456742
vt 0.592645 0.456742
vt 0.577369 0.349609
vt 0.545015 0.407338
vt 0.545015 0.431901
vt 0.577369 0.456742
vt 0.552652 0.456742
vt 0.537377 0.349609
vt 0.505022 0.407338
vt 0.505022 0.431901
vt 0.537377 0.456742
vt 0.512660 0.456742
vt 0.737340 0.349609
vt 0.744978 0.407338
vt 0.704985 0.407338
vt 0.744978 0.431901
vt 0.704985 0.431901
vt 0.737340 0.456742
vt 0.712623 0.456742
vt 0.697348 0.349609
vt 0.664993 0.407338
vt 0.664993 0.431901
vt 0.697348 0.456742
vt 0.672631 0.456742
vt 0.605004 0.281889
vt 0.592645 0.349609
vt 0.605004 0.479604
vt 0.565011 0.281889
vt 0.552653 0.349609
vt 0.565011 0.479604
vt 0.525018 0.281889
vt 0.512660 0.349609
vt 0.525018 0.479604
vt 0.724982 0.281889
vt 0.712623 0.349609
vt 0.724982 0.479604
vt 0.684989 0.281889
vt 0.672631 0.349609
vt 0.684989 0.479604
vt 0.644996 0.281889
vt 0.657355 0.349609
vt 0.632638 0.349609
vt 0.657355 0.456742
vt 0.632638 0.456742
vt 0.644996 0.479604
vn -0.843000 0.229200 0.486700
vn -0.866000 0.000000 0.500000
vn -0.733000 -0.532600 0.423200
vn 0.000000 0.229200 0.973400
vn 0.000000 0.000000 1.000000
vn 0.000000 -0.532600 0.846400
vn 0.843000 0.229200 0.486700
vn 0.866000 0.000000 0.500000
vn 0.733000 -0.532600 0.423200
vn 0.843000 0.229200 -0.486700
vn 0.866000 0.000000 -0.500000
vn 0.733000 -0.532600 -0.423200
vn -0.000000 0.229200 -0.973400
vn -0.000000 0.000000 -1.000000
vn -0.000000 -0.532600 -0.846400
vn -0.821600 0.316100 0.474400
vn -0.304200 -0.936300 0.175600
vn 0.000000 0.316100 0.948700
vn 0.000000 -0.936300 0.351300
vn 0.821600 0.316100 0.474400
vn 0.304200 -0.936300 0.175600
vn 0.821600 0.316100 -0.474400
vn 0.304200 -0.936300 -0.175600
vn -0.000000 0.316100 -0.948700
vn -0.000000 -0.936300 -0.351300
vn -0.821600 0.316100 -0.474400
vn -0.843000 0.229200 -0.486700
vn -0.866000 0.000000 -0.500000
vn -0.733000 -0.532600 -0.423200
vn -0.304200 -0.936300 -0.175600
usemtl None
s off
f 4/1/1 3/2/1 7/3/1
f 3/2/2 2/4/2 6/5/2
f 2/4/3 1/6/3 5/7/3
f 8/8/4 7/3/4 11/9/4
f 7/3/5 6/5/5 10/10/5
f 6/5/6 5/11/6 9/12/6
f 12/13/7 11/9/7 15/14/7
f 11/9/8 10/10/8 14/15/8
f 10/10/9 9/16/9 13/17/9
f 16/18/10 15/19/10 20/20/10
f 15/19/11 14/21/11 19/22/11
f 14/21/12 13/23/12 18/24/12
f 21/25/13 20/20/13 25/26/13
f 20/20/14 19/22/14 24/27/14
f 19/22/15 18/28/15 23/29/15
f 17/30/16 4/1/16 8/31/16
f 1/6/17 22/32/17 5/7/17
f 17/33/18 8/8/18 12/34/18
f 5/11/19 22/35/19 9/12/19
f 17/36/20 12/13/20 16/37/20
f 9/16/21 22/38/21 13/17/21
f 17/39/22 16/18/22 21/40/22
f 13/23/23 22/41/23 18/24/23
f 17/42/24 21/25/24 26/43/24
f 18/28/25 22/44/25 23/29/25
f 17/45/26 26/46/26 4/47/26
f 26/46/27 25/26/27 3/2/27
f 25/26/28 24/27/28 2/4/28
f 24/27/29 23/48/29 1/49/29
f 23/48/30 22/50/30 1/49/30
f 8/31/1 4/1/1 7/3/1
f 7/3/2 3/2/2 6/5/2
f 6/5/3 2/4/3 5/7/3
f 12/34/4 8/8/4 11/9/4
f 11/9/5 7/3/5 10/10/5
f 10/10/6 6/5/6 9/12/6
f 16/37/7 12/13/7 15/14/7
f 15/14/8 11/9/8 14/15/8
f 14/15/9 10/10/9 13/17/9
f 21/40/10 16/18/10 20/20/10
f 20/20/11 15/19/11 19/22/11
f 19/22/12 14/21/12 18/24/12
f 26/43/13 21/25/13 25/26/13
f 25/26/14 20/20/14 24/27/14
f 24/27/15 19/22/15 23/29/15
f 4/47/27 26/46/27 3/2/27
f 3/2/28 25/26/28 2/4/28
f 2/4/29 24/27/29 1/49/29
