# Blender v2.74 (sub 0) OBJ File: 'turret1.blend'
# www.blender.org
mtllib turret1.mtl
v -0.651562 -0.663125 -0.000000
v -0.805134 -0.274616 -0.000000
v -0.805130 0.170802 0.000000
v -0.486248 0.568980 0.000000
v -0.325781 -0.663125 0.564270
v -0.402567 -0.274616 0.697266
v -0.402570 0.170802 0.697270
v -0.243124 0.568980 0.421103
v 0.325781 -0.663125 0.564270
v 0.402567 -0.274616 0.697266
v 0.402570 0.170802 0.697270
v 0.243124 0.568980 0.421103
v 0.651563 -0.663125 -0.000000
v 0.805134 -0.274616 -0.000000
v 0.805130 0.170802 0.000000
v 0.486248 0.568980 0.000000
v 0.000000 0.680745 0.000000
v 0.325781 -0.663125 -0.564270
v 0.402570 -0.274616 -0.697267
v 0.402570 0.170802 -0.697270
v 0.243124 0.568980 -0.421103
v -0.146946 -0.728398 -0.254519
v -0.325781 -0.663125 -0.564270
v -0.402567 -0.274616 -0.697266
v -0.402570 0.170802 -0.697270
v -0.243124 0.568980 -0.421103
v -0.266340 -0.749578 -0.461315
v -0.532680 -0.749578 -0.000000
v -0.266340 -0.749578 0.461315
v 0.266340 -0.749578 0.461315
v 0.532681 -0.749578 -0.000000
v 0.266340 -0.749578 -0.461315
v -0.238788 -0.612205 -0.413593
v -0.477576 -0.612205 -0.000000
v -0.238788 -0.612205 0.413592
v 0.238788 -0.612205 0.413592
v 0.477576 -0.612205 -0.000000
v 0.238788 -0.612205 -0.413593
v -0.293893 -0.728398 -0.000000
v -0.146946 -0.728398 0.254518
v 0.146946 -0.728398 0.254518
v 0.293893 -0.728398 -0.000000
v 0.146946 -0.728398 -0.254519
v -0.146946 -1.655987 -0.254519
v 0.000000 -1.655987 -0.000000
v -0.293893 -1.655987 -0.000000
v -0.146946 -1.655987 0.254518
v 0.146946 -1.655987 0.254518
v 0.293893 -1.655987 -0.000000
v 0.146946 -1.655987 -0.254519
vt 0.875000 0.047559
vt 0.834174 0.047559
vt 0.842259 0.022486
vt 0.875000 0.070606
vt 0.834174 0.070606
vt 0.871106 0.091853
vt 0.838067 0.091853
vt 0.793347 0.047559
vt 0.801432 0.022486
vt 0.793347 0.070606
vt 0.830280 0.091853
vt 0.797241 0.091853
vt 0.785261 0.022486
vt 0.752521 0.047560
vt 0.752521 0.070606
vt 0.789454 0.091854
vt 0.756415 0.091854
vt 0.997479 0.047559
vt 0.956653 0.047559
vt 0.964738 0.022486
vt 0.997479 0.070606
vt 0.956653 0.070606
vt 0.993585 0.091854
vt 0.960546 0.091854
vt 0.915826 0.047559
vt 0.923912 0.022486
vt 0.915826 0.070606
vt 0.952759 0.091853
vt 0.919720 0.091853
vt 0.854587 0.000042
vt 0.866915 0.022486
vt 0.908919 0.098809
vt 0.907522 0.106334
vt 0.883305 0.106334
vt 0.813760 0.000042
vt 0.826088 0.022486
vt 0.922734 0.098809
vt 0.949745 0.098810
vt 0.948348 0.106334
vt 0.772933 0.000043
vt 0.760605 0.022486
vt 0.990571 0.098810
vt 0.989174 0.106335
vt 0.964957 0.106334
vt 0.977067 0.000043
vt 0.989395 0.022486
vt 0.786440 0.098810
vt 0.785043 0.106334
vt 0.760826 0.106335
vt 0.936240 0.000042
vt 0.948568 0.022486
vt 0.827266 0.098809
vt 0.825869 0.106334
vt 0.801652 0.106334
vt 0.895413 0.000042
vt 0.907741 0.022485
vt 0.883085 0.022486
vt 0.911933 0.091853
vt 0.878894 0.091853
vt 0.868092 0.098810
vt 0.866695 0.106334
vt 0.842478 0.106334
vt 0.881908 0.098810
vt 0.963560 0.098810
vt 0.759429 0.098810
vt 0.800255 0.098810
vt 0.841081 0.098809
vt 0.902865 0.116527
vt 0.902865 0.164523
vt 0.887962 0.164523
vt 0.943691 0.116527
vt 0.943690 0.164523
vt 0.928788 0.164523
vt 0.984517 0.116527
vt 0.984516 0.164523
vt 0.969614 0.164523
vt 0.780386 0.116527
vt 0.780387 0.164523
vt 0.765484 0.164523
vt 0.821212 0.116527
vt 0.821212 0.164523
vt 0.806310 0.164523
vt 0.847135 0.116527
vt 0.862038 0.116527
vt 0.862038 0.164523
vt 0.887962 0.116527
vt 0.928788 0.116527
vt 0.924131 0.106334
vt 0.969614 0.116527
vt 0.765483 0.116528
vt 0.806309 0.116527
vt 0.854586 0.177692
vt 0.847135 0.164523
vt 0.813761 0.177692
vt 0.772936 0.177692
vt 0.977065 0.177692
vt 0.936239 0.177692
vt 0.895414 0.177692
vn -0.711600 0.569900 0.410800
vn -0.866000 0.000000 0.500000
vn -0.819300 -0.323900 0.473100
vn 0.000000 0.569900 0.821700
vn 0.000000 -0.000000 1.000000
vn 0.000000 -0.323900 0.946100
vn 0.711600 0.569900 0.410800
vn 0.866000 0.000000 0.500000
vn 0.819300 -0.323900 0.473000
vn 0.711600 0.569900 -0.410800
vn 0.866000 0.000000 -0.500000
vn 0.819300 -0.323900 -0.473000
vn 0.000000 0.569900 -0.821700
vn 0.000000 -0.000000 -1.000000
vn -0.000000 -0.323900 -0.946100
vn -0.222200 0.966500 0.128300
vn 0.818100 -0.328200 0.472300
vn 0.000000 0.966500 0.256500
vn 0.000000 -0.328200 0.944600
vn 0.222200 0.966500 0.128300
vn -0.818100 -0.328200 0.472300
vn 0.222200 0.966500 -0.128300
vn -0.818100 -0.328200 -0.472300
vn -0.000000 0.966500 -0.256500
vn -0.000000 -0.328200 -0.944600
vn -0.222200 0.966500 -0.128300
vn -0.711600 0.569900 -0.410800
vn -0.866000 0.000000 -0.500000
vn -0.819300 -0.323900 -0.473000
vn 0.818100 -0.328200 -0.472300
vn -0.556900 -0.765800 -0.321500
vn -0.000000 -0.765800 -0.643100
vn 0.556900 -0.765800 -0.321500
vn 0.556900 -0.765800 0.321500
vn 0.000000 -0.765800 0.643100
vn -0.556900 -0.765800 0.321500
vn -0.510800 -0.807500 -0.294900
vn -0.000000 -0.807500 -0.589800
vn 0.510800 -0.807500 -0.294900
vn 0.510800 -0.807500 0.294900
vn 0.000000 -0.807500 0.589800
vn -0.510800 -0.807500 0.294900
vn 0.000000 -1.000000 -0.000000
vn -0.711600 0.569900 0.410900
vn -0.819300 -0.323900 0.473000
vn 0.711600 0.569900 0.410900
vn 0.711600 0.569900 -0.410900
vn -0.711600 0.569900 -0.410900
usemtl None
s off
f 3/1/1 7/2/1 8/3/1
f 3/1/2 2/4/2 6/5/2
f 1/6/3 5/7/3 6/5/3
f 7/2/4 11/8/4 12/9/4
f 6/5/5 10/10/5 11/8/5
f 5/11/6 9/12/6 10/10/6
f 12/13/7 11/8/7 15/14/7
f 10/10/8 14/15/8 15/14/8
f 10/10/9 9/16/9 13/17/9
f 15/18/10 20/19/10 21/20/10
f 15/18/11 14/21/11 19/22/11
f 13/23/12 18/24/12 19/22/12
f 20/19/13 25/25/13 26/26/13
f 20/19/14 19/22/14 24/27/14
f 18/28/15 23/29/15 24/27/15
f 17/30/16 4/31/16 8/3/16
f 27/32/17 33/33/17 34/34/17
f 17/35/18 8/36/18 12/9/18
f 27/37/19 32/38/19 38/39/19
f 17/40/20 12/13/20 16/41/20
f 31/42/21 37/43/21 38/44/21
f 17/45/22 16/46/22 21/20/22
f 30/47/23 36/48/23 37/49/23
f 17/50/24 21/51/24 26/26/24
f 29/52/25 35/53/25 36/54/25
f 17/55/26 26/56/26 4/57/26
f 26/56/27 25/25/27 3/1/27
f 24/27/28 2/4/28 3/1/28
f 23/58/29 1/59/29 2/4/29
f 28/60/30 34/61/30 35/62/30
f 27/32/31 28/63/31 1/59/31
f 32/38/32 27/37/32 23/29/32
f 31/42/33 32/64/33 18/24/33
f 30/47/34 31/65/34 13/17/34
f 29/52/35 30/66/35 9/12/35
f 28/60/36 29/67/36 5/7/36
f 22/68/28 44/69/28 46/70/28
f 43/71/14 50/72/14 44/73/14
f 42/74/11 49/75/11 50/76/11
f 41/77/8 48/78/8 49/79/8
f 40/80/5 47/81/5 48/82/5
f 40/83/2 39/84/2 46/85/2
f 22/68/37 39/86/37 34/34/37
f 43/71/38 22/87/38 33/88/38
f 42/74/39 43/89/39 38/44/39
f 41/77/40 42/90/40 37/49/40
f 40/80/41 41/91/41 36/54/41
f 39/84/42 40/83/42 35/62/42
f 46/85/43 45/92/43 47/93/43
f 47/81/43 45/94/43 48/82/43
f 48/78/43 45/95/43 49/79/43
f 49/75/43 45/96/43 50/76/43
f 50/72/43 45/97/43 44/73/43
f 44/69/43 45/98/43 46/70/43
f 4/31/44 3/1/44 8/3/44
f 7/2/2 3/1/2 6/5/2
f 2/4/45 1/6/45 6/5/45
f 8/36/4 7/2/4 12/9/4
f 7/2/5 6/5/5 11/8/5
f 6/5/6 5/11/6 10/10/6
f 16/41/46 12/13/46 15/14/46
f 11/8/8 10/10/8 15/14/8
f 14/15/9 10/10/9 13/17/9
f 16/46/47 15/18/47 21/20/47
f 20/19/11 15/18/11 19/22/11
f 14/21/12 13/23/12 19/22/12
f 21/51/13 20/19/13 26/26/13
f 25/25/14 20/19/14 24/27/14
f 19/22/15 18/28/15 24/27/15
f 28/63/17 27/32/17 34/34/17
f 33/88/19 27/37/19 38/39/19
f 32/64/21 31/42/21 38/44/21
f 31/65/23 30/47/23 37/49/23
f 30/66/25 29/52/25 36/54/25
f 4/57/48 26/56/48 3/1/48
f 25/25/28 24/27/28 3/1/28
f 24/27/29 23/58/29 2/4/29
f 29/67/30 28/60/30 35/62/30
f 23/58/31 27/32/31 1/59/31
f 18/28/32 32/38/32 23/29/32
f 13/23/33 31/42/33 18/24/33
f 9/16/34 30/47/34 13/17/34
f 5/11/35 29/52/35 9/12/35
f 1/6/36 28/60/36 5/7/36
f 39/86/28 22/68/28 46/70/28
f 22/87/14 43/71/14 44/73/14
f 43/89/11 42/74/11 50/76/11
f 42/90/8 41/77/8 49/79/8
f 41/91/5 40/80/5 48/82/5
f 47/93/2 40/83/2 46/85/2
f 33/33/37 22/68/37 34/34/37
f 38/39/38 43/71/38 33/88/38
f 37/43/39 42/74/39 38/44/39
f 36/48/40 41/77/40 37/49/40
f 35/53/41 40/80/41 36/54/41
f 34/61/42 39/84/42 35/62/42
